<?xml version="1.0" standalone="no"?>
<!DOCTYPE svg PUBLIC "-//W3C//DTD SVG 1.1//EN" "http://www.w3.org/Graphics/SVG/1.1/DTD/svg11.dtd" >
<svg xmlns="http://www.w3.org/2000/svg">
<metadata>
<json>
{
	"fontFamily": "monk-appicons",
	"majorVersion": 2,
	"minorVersion": 0,
	"fontURL": "http://devxive.com/monk",
	"designer": "devXive - research and development",
	"designerURL": "http://devxive.com",
	"license": "devXive Proprietary Use License",
	"licenseURL": "http://devxive.com/license",
	"version": "Version 2.0",
	"fontId": "monk-appicons",
	"psName": "monk-appicons",
	"subFamily": "Regular",
	"fullName": "monk-appicons",
	"description": "Generated by devXive"
}
</json>
</metadata>
<defs>
<font id="monk-appfont" horiz-adv-x="512">
<font-face units-per-em="512" ascent="480" descent="-32" />
<missing-glyph horiz-adv-x="512" />
<glyph unicode="&#x20;" d="" horiz-adv-x="256" />
<glyph unicode="&#xe600;" d="M512 184.784l-256 198.72-256-198.72v81.024l256 198.72 256-198.72zM448 192v-192h-128v128h-128v-128h-128v192l192 144z" />
<glyph unicode="&#xe601;" d="M73.956 478.863v-436.906h436.906v436.906h-436.906zM474.454 78.365h-364.089v364.089h364.089v-364.089zM37.547 5.546v364.089l-36.409 36.409v-436.906h436.906l-36.409 36.409zM208.923 125.441l109.226 109.226 83.486-83.486v218.454h-218.453l83.486-83.486-109.226-109.227z" />
<glyph unicode="&#xe602;" d="M512 480v-192l-69.136 69.136-106-106-53.744 53.744 106 106-69.136 69.136zM122.864 410.864l106-106-53.744-53.744-106 106-69.136-69.136v192h192zM442.864 90.864l69.136 69.136v-192h-192l69.136 69.136-106 106 53.744 53.744zM228.864 143.136l-106-106 69.136-69.136h-192v192l69.136-69.136 106 106z" />
<glyph unicode="&#xe603;" d="M32 192h192v-192l-69.136 69.136-101.008-101.008-53.744 53.744 101.008 101.008zM410.864 122.864l101.008-101.008-53.744-53.744-101.008 101.008-69.136-69.136v192h192zM480 256h-192v192l69.136-69.136 101.008 101.008 53.744-53.744-101.008-101.008zM154.864 378.864l69.136 69.136v-192h-192l69.136 69.136-101.008 101.008 53.744 53.744z" />
<glyph unicode="&#xe604;" d="M199.439 276.010v-187.25q0-4.551-2.93-7.482t-7.482-2.93h-20.808q-4.551 0-7.482 2.93t-2.93 7.482v187.25q0 4.551 2.93 7.482t7.482 2.931h20.808q4.551 0 7.482-2.931t2.93-7.482zM282.651 276.010v-187.25q0-4.551-2.93-7.482t-7.482-2.93h-20.808q-4.551 0-7.482 2.93t-2.93 7.482v187.25q0 4.551 2.93 7.482t7.482 2.931h20.808q4.551 0 7.482-2.931t2.93-7.482zM365.882 276.010v-187.25q0-4.551-2.93-7.482t-7.482-2.93h-20.808q-4.551 0-7.482 2.93t-2.93 7.482v187.25q0 4.551 2.93 7.482t7.482 2.931h20.808q4.551 0 7.482-2.931t2.93-7.482zM407.479 40.663v308.183h-291.271v-308.183q0-7.154 2.275-13.161t4.715-8.774 3.422-2.767h270.464q0.983 0 3.423 2.767t4.715 8.774 2.276 13.161zM189.025 390.443h145.636l-15.601 38.029q-2.276 2.931-5.534 3.568h-103.055q-3.258-0.656-5.535-3.568zM490.71 380.031v-20.808q0-4.551-2.93-7.482t-7.482-2.93h-31.202v-308.183q0-26.979-15.274-46.658t-36.736-19.661h-270.464q-21.463 0-36.737 19.024t-15.273 46.002v309.476h-31.203q-4.551 0-7.482 2.93t-2.931 7.482v20.808q0 4.551 2.931 7.482t7.482 2.93h100.453l22.756 54.286q4.879 12.033 17.549 20.48t25.686 8.447h104.020q12.998 0 25.687-8.447t17.55-20.48l22.755-54.286h100.452q4.551 0 7.482-2.93t2.93-7.482z" />
<glyph unicode="&#xe605;" d="M362.666 302.933l89.293 89.293-32.615 32.615-89.293-89.293zM498.893 392.226q0-8.226-5.478-13.721l-391.919-391.919q-5.478-5.478-13.722-5.478t-13.722 5.478l-60.347 60.347q-5.479 5.478-5.479 13.721t5.479 13.721l391.919 391.919q5.478 5.478 13.721 5.478t13.721-5.478l60.348-60.347q5.478-5.479 5.478-13.722zM87.159 450.134l29.867-9.148-29.867-9.147-9.147-29.867-9.148 29.867-29.867 9.147 29.867 9.148 9.148 29.866zM193.826 400.76l59.733-18.279-59.733-18.279-18.279-59.733-18.279 59.733-59.733 18.279 59.733 18.279 18.279 59.733zM477.252 255.078l29.866-9.148-29.866-9.148-9.147-29.867-9.147 29.867-29.866 9.148 29.866 9.148 9.147 29.867zM282.214 450.134l29.866-9.148-29.866-9.147-9.147-29.867-9.147 29.867-29.867 9.147 29.867 9.148 9.147 29.866z" />
<glyph unicode="&#xe606;" d="M256 480c-141.392 0-256-114.608-256-256s114.608-256 256-256 256 114.608 256 256-114.608 256-256 256zM408.032 71.968c-19.76-19.76-42.752-35.264-68.352-46.096-6.496-2.752-13.104-5.168-19.808-7.248v38.368c0 20.16-6.912 35.008-20.752 44.496 8.672 0.832 16.624 2 23.872 3.504s14.912 3.664 23.008 6.496 15.328 6.208 21.744 10.128 12.576 9.008 18.496 15.248 10.88 13.328 14.88 21.248 7.168 17.424 9.504 28.496 3.504 23.296 3.504 36.624c0 25.84-8.416 47.84-25.248 66 7.664 20 6.832 41.744-2.496 65.248l-6.256 0.752c-4.336 0.496-12.128-1.328-23.376-5.504s-23.872-11.008-37.872-20.496c-19.84 5.504-40.416 8.256-61.744 8.256-21.504 0-42-2.752-61.504-8.256-8.832 6-17.2 10.96-25.12 14.88-7.92 3.92-14.256 6.576-19.008 8s-9.168 2.288-13.248 2.624-6.704 0.416-7.872 0.256-2-0.336-2.496-0.496c-9.328-23.664-10.16-45.424-2.496-65.248-16.832-18.16-25.248-40.16-25.248-66 0-13.328 1.168-25.536 3.504-36.624s5.504-20.576 9.504-28.496 8.96-15.008 14.88-21.248 12.080-11.328 18.496-15.248 13.664-7.296 21.744-10.128 15.744-5.008 23.008-6.496 15.2-2.672 23.872-3.504c-13.664-9.328-20.496-24.16-20.496-44.496v-39.12c-7.552 2.24-14.992 4.896-22.304 8-25.6 10.832-48.592 26.336-68.352 46.096-19.76 19.76-35.264 42.752-46.096 68.352-11.2 26.48-16.88 54.624-16.88 83.68s5.68 57.2 16.88 83.68c10.832 25.6 26.336 48.592 46.096 68.352s42.752 35.264 68.352 46.096c26.48 11.2 54.64 16.88 83.68 16.88s57.2-5.68 83.68-16.88c25.6-10.832 48.592-26.336 68.352-46.096 19.76-19.76 35.264-42.752 46.096-68.352 11.2-26.48 16.88-54.64 16.88-83.68s-5.68-57.2-16.88-83.68c-10.832-25.6-26.336-48.592-46.096-68.352z" />
<glyph unicode="&#xe607;" d="M131.728 100.32c0-13.52 11.44-20.288 34.336-20.288 20.032 0 30.048 7.024 30.048 21.072 0 13.264-10.928 19.904-32.768 19.904-21.072 0-31.6-6.88-31.6-20.672zM426.672 480h-341.328c-46.944 0-85.344-38.4-85.344-85.344v-341.312c0-46.976 38.4-85.344 85.344-85.344h341.328c46.928 0 85.328 38.368 85.328 85.344v341.312c0 46.944-38.384 85.344-85.328 85.344zM237.872 275.504c-3.648-1.296-8.848-2.736-15.6-4.288 2.080-5.984 3.12-11.568 3.12-16.784 0-16.64-5.008-31.152-15.024-43.504-10.016-12.352-22.96-19.696-38.816-22.048-10.4-1.568-15.6-7.152-15.6-16.784 0-3.376 1.696-6.768 5.072-10.144 4.416-4.944 10.928-8.064 19.504-9.36 37.2-5.728 55.792-21.2 55.792-46.432 0-40.32-24.064-60.48-72.176-60.48-19.776 0-36.032 3.52-48.768 10.528-16.128 8.848-24.192 22.752-24.192 41.744 0 21.856 12.096 36.8 36.288 44.864v0.784c-8.848 5.456-13.264 13.792-13.264 24.976 0 14.56 4.16 23.68 12.48 27.312v0.784c-8.32 2.864-15.744 9.36-22.24 19.52-7.28 10.928-10.928 22.624-10.928 35.12 0 18.736 6.64 34.336 19.904 46.816 12.752 11.712 27.968 17.552 45.648 17.552 12.752 0 24.576-3.12 35.504-9.36 12.48 0 26.928 3.12 43.312 9.36v-40.192zM301.088 140.496h-44.096c0.528 5.2 0.784 14.048 0.784 26.528v121.344c0 12.224-0.256 20.688-0.784 25.36h44.096c-0.528-4.944-0.784-13.136-0.784-24.576v-119.776c0-13.264 0.256-22.896 0.784-28.88zM298.16 352.752c-5.328-5.728-11.648-8.576-18.928-8.576-7.536 0-13.984 2.864-19.312 8.576-5.328 5.728-8 12.48-8 20.288 0 8.064 2.672 14.96 8 20.688 5.328 5.728 11.776 8.592 19.312 8.592 7.28 0 13.584-2.864 18.928-8.592 5.328-5.728 8-12.608 8-20.688 0-7.808-2.672-14.56-8-20.288zM420.848 145.584c-9.632-5.2-21.2-7.808-34.736-7.808-18.992 0-32.128 6.752-39.408 20.288-5.472 10.144-8.192 26.144-8.192 47.984v69.84h0.384v0.784l-5.856 0.384c-3.376 0-7.808-0.384-13.264-1.168v37.84h19.12v15.216c0 7.28-0.384 13.136-1.168 17.568h45.264c-0.768-4.944-1.168-10.528-1.168-16.784v-16h33.936v-37.84c-1.296 0-3.712 0.128-7.216 0.384-3.52 0.256-6.832 0.4-9.952 0.4h-16.784v-72.576c0-17.44 5.728-26.144 17.168-26.144 8.064 0 15.344 2.208 21.856 6.64v-39.024zM160.608 279.792c-16.384 0-24.576-9.632-24.576-28.88 0-17.952 8.192-26.928 24.576-26.928 15.872 0 23.808 9.104 23.808 27.312 0 7.552-1.824 14.048-5.456 19.504-4.416 5.984-10.544 8.976-18.336 8.976z" />
<glyph unicode="&#xe608;" d="M256-30.976l-184.080 49.792-42.224 460.176h452.608l-42.288-460.176-184.016-49.792zM204.464 278.4l105.888-219.744 9.952 0.752c3.472 0.256 7.040 0.528 10.768 0.832 4.88 0.416 10.448 0.992 17.024 1.776 6.192 0.736 12.88 1.728 19.824 2.944 7.728 1.296 15.696 2.816 23.664 4.512l6.416 1.376v70.624l-10.976-4.096c-5.376-2-10-3.584-14.48-4.928-2.496-0.736-4.928-1.392-7.312-1.984v203.424c7.84-1.984 15.152-4.224 21.792-6.688l10.96-4.080v74.64l-6.432 1.376c-8.32 1.776-15.456 3.2-22.528 4.496-7.168 1.264-15.264 2.432-24.048 3.488-9.136 1.136-19.008 1.936-29.344 2.384l-8.48 0.368v-220.128l-105.792 220-5.36-0.24c-10.304-0.448-20.208-1.264-29.392-2.384-8.784-1.056-16.88-2.224-24.128-3.504-7.088-1.312-14.304-2.784-22.080-4.496l-6.368-1.408v-70l10.864 3.888c4.352 1.552 9.28 3.152 14.72 4.752 2.256 0.688 4.592 1.344 7.072 1.984v-203.744c-8.224 2-15.408 4.256-21.456 6.72l-11.2 4.56v-75.008l6.4-1.392c7.936-1.728 15.824-3.248 23.376-4.512 7.088-1.232 13.744-2.224 19.776-2.96 6.384-0.768 11.936-1.36 16.992-1.776 3.744-0.304 7.408-0.576 10.992-0.848l12.912-0.976v219.984z" />
<glyph unicode="&#xe609;" d="M256-30.976l-184.080 49.792-31.664 345.136-10.56 115.040h226.304v-509.968zM256-30.976v509.968h226.304l-42.288-460.176-184.016-49.792zM417.296 44.144l37.072 403.344h-198.352v-446.976l161.28 43.632zM175.376 22.32l80.64-21.824v446.976h-198.352l37.056-403.36 80.64-21.824zM204.464 58.416l-12.912 0.976c-1.792 0.128-3.6 0.272-5.424 0.4s-3.68 0.288-5.552 0.448c-2.528 0.208-5.184 0.464-8 0.752s-5.808 0.64-8.992 1.024c-3.024 0.368-6.192 0.8-9.504 1.296-3.296 0.496-6.736 1.056-10.288 1.664-3.776 0.64-7.648 1.328-11.552 2.080-3.904 0.752-7.856 1.568-11.824 2.432l-6.4 1.392v75.008l11.2-4.56c3.024-1.232 6.336-2.416 9.92-3.536 3.584-1.12 7.44-2.192 11.552-3.184v203.744c-1.232-0.32-2.448-0.64-3.632-0.976s-2.336-0.672-3.456-1.008c-2.72-0.8-5.312-1.6-7.76-2.384-2.464-0.8-4.784-1.584-6.96-2.352l-10.864-3.888v70l6.368 1.408c3.888 0.864 7.632 1.664 11.296 2.4s7.232 1.44 10.784 2.096c3.632 0.64 7.472 1.248 11.488 1.84s8.24 1.136 12.64 1.664c4.592 0.56 9.36 1.040 14.272 1.44s9.968 0.72 15.12 0.944l5.36 0.24 54.656-112.624v-128l-51.536 109.264v-220zM256 297.136l51.136-107.376v220.128l8.48-0.368c5.168-0.224 10.224-0.544 15.12-0.944s9.648-0.88 14.224-1.456c4.4-0.528 8.624-1.088 12.64-1.664 4.016-0.592 7.84-1.2 11.424-1.824 3.536-0.64 7.088-1.328 10.8-2.064 3.712-0.736 7.568-1.536 11.728-2.432l6.432-1.376v-74.64l-10.96 4.096c-3.328 1.232-6.816 2.416-10.448 3.536s-7.424 2.176-11.344 3.152v-203.424c1.184 0.288 2.384 0.608 3.6 0.928 1.216 0.336 2.448 0.672 3.696 1.056 2.24 0.672 4.528 1.408 6.912 2.224 2.384 0.816 4.88 1.712 7.584 2.704l10.976 4.096v-70.624l-6.416-1.376c-3.984-0.848-7.968-1.664-11.92-2.416s-7.872-1.456-11.744-2.096c-3.472-0.608-6.88-1.152-10.192-1.648-3.312-0.496-6.528-0.928-9.632-1.296-3.296-0.384-6.336-0.736-9.152-1.024-2.832-0.304-5.44-0.544-7.872-0.752-1.856-0.144-3.68-0.288-5.472-0.432s-3.552-0.272-5.296-0.4l-9.952-0.752-54.352 110.48v128z" />
<glyph unicode="&#xe60a;" d="M38.4 316.752h435.2c14.592 0 12.208 15.568 4.944 18.096s-88.144 33.104-102.224 33.104h-23.040v76.8h-194.56v-76.8h-23.040c-14.080 0-94.944-30.56-102.224-33.104s-9.68-18.096 4.944-18.096zM478.72 288.592h-445.44c-14.080 0-28.16-16.64-28.16-30.72v-89.6c0-14.080 14.080-30.72 28.16-30.72h50.736l-22.576-128h389.12l-22.576 128h50.736c14.080 0 28.16 16.64 28.16 30.72v89.6c0 14.080-14.080 30.72-28.16 30.72zM112.64 60.752l35.84 166.4h215.040l35.808-166.4h-286.688z" />
<glyph unicode="&#xe60b;" d="M128 448h256v-64h-256zM480 352h-448c-17.6 0-32-14.4-32-32v-160c0-17.6 14.4-32 32-32h96v-128h256v128h96c17.6 0 32 14.4 32 32v160c0 17.6-14.4 32-32 32zM352 32h-192v160h192v-160zM487.2 304c0-12.816-10.384-23.2-23.2-23.2s-23.2 10.384-23.2 23.2 10.384 23.2 23.2 23.2c12.816 0 23.2-10.384 23.2-23.2z" />
<glyph unicode="&#xe60c;" d="M368 480h-224c-26.4 0-48-21.6-48-48v-416c0-26.4 21.6-48 48-48h224c26.4 0 48 21.6 48 48v416c0 26.4-21.6 48-48 48zM192 456h128v-16h-128v16zM256 0c-17.68 0-32 14.32-32 32s14.32 32 32 32 32-14.32 32-32-14.32-32-32-32zM384 96h-256v320h256v-320z" />
<glyph unicode="&#xe60d;" d="M512 80v320c0 26.4-21.6 48-48 48h-416c-26.4 0-48-21.6-48-48v-320c0-26.4 21.6-48 48-48h416c26.4 0 48 21.6 48 48zM16 240c0 8.832 7.168 16 16 16s16-7.168 16-16-7.168-16-16-16-16 7.168-16 16zM64 96v288h384v-288h-384z" />
<glyph unicode="&#xe60e;" d="M460.8 449.28h-409.6c-28.16 0-51.2-23.040-51.2-51.2v-281.6c0-28.16 22.576-55.728 50.208-61.264l111.92-22.368c0 0-96.336-34.128-34.128-34.128h256c62.208 0-34.128 34.128-34.128 34.128l111.92 22.368c27.6 5.536 50.208 33.104 50.208 61.264v281.6c0 28.16-23.040 51.2-51.2 51.2zM460.8 119.040h-409.6v284.16h409.6v-284.16z" />
<glyph unicode="&#xe60f;" d="M110.368 121.145q-17.685 0-30.27 12.585t-12.585 30.27v188.565q0 17.685 12.585 30.27t30.27 12.585h291.435q17.685 0 30.27-12.585t12.585-30.27v-188.565q0-17.685-12.585-30.27t-30.27-12.585h-291.435zM101.788 352.565v-188.565q0-3.48 2.55-6.030t6.030-2.55h291.435q3.48 0 6.030 2.55t2.55 6.030v188.565q0 3.48-2.55 6.030t-6.030 2.55h-291.435q-3.48 0-6.030-2.55t-2.55-6.030zM470.368 104h42.855v-25.71q0-10.71-12.585-18.21t-30.27-7.5h-428.565q-17.685 0-30.27 7.5t-12.585 18.21v25.71h471.435zM277.498 78.29q4.29 0 4.29 4.29t-4.29 4.29h-42.855q-4.29 0-4.29-4.29t4.29-4.29h42.855z" />
<glyph unicode="&#xe610;" d="M256 368c-111.664 0-208.448-65.024-256-160 47.552-94.976 144.336-160 256-160 111.664 0 208.432 65.024 256 160-47.552 94.976-144.336 160-256 160zM382.224 283.152c30.080-19.184 55.568-44.88 74.72-75.152-19.152-30.256-44.64-55.968-74.72-75.152-37.792-24.112-81.44-36.848-126.224-36.848-44.784 0-88.432 12.736-126.224 36.848-30.080 19.184-55.568 44.88-74.72 75.152 19.152 30.256 44.64 55.968 74.72 75.152 1.952 1.248 3.936 2.464 5.936 3.648-4.976-13.664-7.712-28.416-7.712-43.792 0-70.688 57.312-128 128-128s128 57.312 128 128c0 15.392-2.72 30.128-7.712 43.792 1.984-1.184 3.968-2.4 5.936-3.648zM256 258.992c0-26.512-21.488-48-48-48s-48 21.488-48 48 21.488 48 48 48 48-21.488 48-48z" />
<glyph unicode="&#xe611;" d="M419.664 315.792c38.816-27.52 70.688-64.544 92.336-107.792-47.568-94.976-144.336-160-256-160-31.28 0-61.392 5.104-89.584 14.544l38.976 38.976c16.528-3.648 33.488-5.52 50.608-5.52 44.784 0 88.432 12.736 126.224 36.848 30.080 19.184 55.568 44.88 74.72 75.152-18.528 29.28-43.008 54.272-71.824 73.248l34.544 34.544zM256 114.992c-11.36 0-22.384 1.488-32.864 4.272l156.592 156.592c2.784-10.48 4.272-21.504 4.272-32.864 0-70.688-57.312-128-128-128zM480 464h-26.864l-109.808-109.808c-27.536 8.96-56.88 13.808-87.328 13.808-111.664 0-208.448-65.024-256-160 21.328-42.592 52.56-79.152 90.592-106.528l-90.592-90.592v-26.864h26.864l453.136 453.136v26.864zM208 306.992c24.016 0 43.92-17.648 47.44-40.688l-54.768-54.768c-23.040 3.52-40.688 23.424-40.688 47.44 0 26.512 21.488 48 48 48zM55.056 208c19.152 30.256 44.64 55.968 74.72 75.152 1.952 1.248 3.936 2.464 5.936 3.648-4.976-13.664-7.712-28.416-7.712-43.792 0-29.264 9.824-56.224 26.352-77.776l-29.28-29.28c-28.032 18.816-51.872 43.392-70.016 72.048z" />
<glyph unicode="&#xe612;" d="M129.136 256.736l-73.264 126.896c46.912 58.736 119.12 96.368 200.128 96.368 93.712 0 175.648-50.368 220.272-125.504h-208.88c-3.76 0.32-7.552 0.496-11.376 0.496-60.944 0-112.288-41.824-126.864-98.272zM347.648 317.504h146.736c11.376-28.96 17.616-60.496 17.616-93.504 0-140.416-113.056-254.4-253.088-255.968l104.704 181.344c14.736 21.184 23.392 46.912 23.392 74.624 0 36.592-15.088 69.712-39.344 93.504zM163.008 224c0 51.28 41.712 93.008 93.008 93.008s93.008-41.712 93.008-93.008c0-51.28-41.728-93.008-93.008-93.008-51.28 0-93.008 41.728-93.008 93.008zM291.088 97.776l-73.296-126.944c-123.264 18.448-217.808 124.752-217.808 253.152 0 45.616 11.936 88.416 32.848 125.52l104.512-181.024c20.928-44.56 66.24-75.488 118.64-75.488 12.144 0 23.92 1.664 35.088 4.784z" />
<glyph unicode="&#xe613;" d="M511.264 312.928l-5.936-38.032c0 0-8.48 70.432-18.864 96.752-15.92 40.336-23.008 40.016-23.056 39.968 10.672-27.104 8.736-41.664 8.736-41.664s-18.896 51.504-68.848 67.888c-55.344 18.144-85.28 13.184-88.752 12.24-0.528 0-1.024 0-1.52 0 0.416-0.032 0.8-0.080 1.216-0.112-0.016-0.016-0.048-0.016-0.048-0.032 0.224-0.272 61.152-10.656 71.952-25.504 0 0-25.872 0-51.632-7.424-1.168-0.336 94.768-11.984 114.368-107.84 0 0-10.512 21.936-23.52 25.664 8.56-26.016 6.352-75.392-1.792-99.92-1.056-3.152-2.128 13.648-18.16 20.88 5.136-36.816-0.304-95.232-25.856-111.312-1.984-1.248 16.016 57.648 3.616 34.88-71.36-109.408-155.696-50.48-193.616-24.56 19.44-4.224 56.32 0.656 72.656 12.8 0.016 0.016 0.032 0.032 0.064 0.048 17.728 12.128 28.24 20.976 37.664 18.88 9.44-2.112 15.712 7.36 8.384 15.76-7.344 8.416-25.152 19.984-49.264 13.68-17.008-4.448-38.064-23.264-70.224-4.224-24.688 14.624-27.008 26.768-27.232 35.184 0.608 2.976 1.376 5.776 2.288 8.32 2.848 7.936 11.456 10.336 16.24 12.224 8.128-1.392 15.136-3.936 22.48-7.696 0.096 2.448 0.128 5.696-0.016 9.376 0.704 1.408 0.272 5.632-0.864 10.784-0.656 5.152-1.712 10.48-3.376 15.344 0 0 0.016 0 0.016 0 0.032 0.016 0.048 0.016 0.080 0.032 0.032 0.016 0.080 0.064 0.112 0.096 0 0.016 0.016 0.016 0.016 0.032 0.048 0.064 0.080 0.128 0.096 0.24 0.512 2.304 6.016 6.768 12.864 11.552 6.128 4.288 13.344 8.848 19.040 12.384 5.024 3.12 8.864 5.44 9.68 6.048 0.304 0.24 0.672 0.512 1.088 0.816 0.080 0.064 0.144 0.112 0.224 0.176 0.048 0.032 0.096 0.080 0.144 0.112 2.704 2.16 6.736 6.224 7.584 14.784 0 0.016 0 0.032 0 0.064 0.032 0.256 0.048 0.512 0.064 0.768 0.016 0.176 0.032 0.368 0.032 0.544 0 0.144 0.016 0.288 0.016 0.432 0.016 0.336 0.032 0.688 0.032 1.040 0 0.016 0 0.032 0 0.064 0.016 0.832 0 1.696-0.048 2.608-0.032 0.512-0.064 0.96-0.144 1.376 0 0.016-0.016 0.048-0.016 0.064-0.016 0.048-0.016 0.080-0.032 0.128-0.016 0.080-0.032 0.144-0.064 0.208 0 0.016 0 0.016-0.016 0.016-0.032 0.080-0.064 0.16-0.080 0.224 0 0 0 0 0 0.016-0.88 2.048-4.16 2.832-17.728 3.056-0.016 0-0.032 0-0.032 0v0c-5.536 0.096-12.768 0.096-22.256 0.064-16.624-0.064-25.808 16.256-28.752 22.56 4.016 22.224 15.632 38.064 34.72 48.816 0.368 0.208 0.288 0.368-0.144 0.496 3.728 2.256-45.12 0.064-67.6-28.512-19.952 4.96-37.328 4.624-52.304 1.104-2.88 0.080-6.464 0.432-10.72 1.328-9.968 9.024-24.224 25.696-24.992 45.6 0 0-0.048-0.032-0.128-0.096-0.016 0.192-0.032 0.384-0.032 0.576 0 0-30.352-23.328-25.808-86.944-0.016-1.024-0.032-2-0.064-2.944-8.224-11.136-12.288-20.512-12.592-22.576-7.28-14.816-14.672-37.12-20.672-70.992 0 0 4.208 13.328 12.64 28.432-6.208-19.008-11.088-48.576-8.224-92.928 0 0 0.752 9.84 3.44 24 2.096-27.504 11.264-61.456 34.432-101.392 44.48-76.656 112.832-115.376 188.4-121.312 13.424-1.104 27.024-1.136 40.704-0.096 1.264 0.096 2.512 0.176 3.776 0.288 15.488 1.088 31.072 3.424 46.624 7.184 212.592 51.392 189.472 308.096 189.472 308.096z" />
<glyph unicode="&#xe614;" d="M256 448c-12.032 0-23.856-0.896-35.408-2.608-0.144 0.384-0.32 0.768-0.496 1.152 6.416 5.008 9.776 11.92 8.32 18.768-1.872 8.784-11.2 14.688-23.216 14.688-2.592 0-5.232-0.288-7.84-0.832-15.088-3.2-25.072-14.304-22.736-25.28 1.424-6.672 7.152-11.664 15.088-13.696-0.016-0.48-0.016-0.976 0.016-1.472-100.304-28.768-173.712-121.168-173.712-230.72 0-132.544 107.456-240 240-240 132.544 0 240 107.456 240 240 0 132.544-107.456 240-240 240zM182.448 455.552c-1.36 6.368 6.24 13.6 16.576 15.792 2.064 0.432 4.144 0.656 6.176 0.656 8.016 0 14.352-3.44 15.392-8.352 0.8-3.76-1.536-7.808-5.696-10.944-3.52 2.48-8.016 3.568-12.544 2.592-4.528-0.96-8.176-3.76-10.384-7.424-5.088 1.232-8.752 4.048-9.52 7.68zM384.688 79.312c-21.984-21.984-48.608-37.632-77.648-46.080l-21.2 34.384-5.376-39.984c-8.048-1.072-16.208-1.632-24.464-1.632-48.608 0-94.32 18.928-128.688 53.312-21.984 21.984-37.632 48.608-46.080 77.648l34.384 21.2-39.984 5.376c-1.072 8.048-1.632 16.208-1.632 24.464 0 48.608 18.928 94.32 53.312 128.688 21.984 21.984 48.608 37.632 77.648 46.080l21.2-34.384 5.376 39.984c8.048 1.072 16.208 1.632 24.464 1.632 48.608 0 94.32-18.928 128.688-53.312 21.984-21.984 37.632-48.608 46.080-77.648l-34.384-21.2 39.984-5.376c1.072-8.048 1.632-16.208 1.632-24.464 0-48.608-18.928-94.32-53.312-128.688zM380.448 332.448l-98.496-74.848c-7.328 3.824-15.44 6.032-23.712 6.368l-25.536 53.584-1.536-59.328c-6.64-3.264-12.544-7.824-17.44-13.472l-31.552 11.184 23.040-24.272c-3.168-6.752-4.928-14.016-5.216-21.408l-53.584-25.536 59.376-1.536c0.192-0.384 0.384-0.768 0.592-1.136l-74.848-98.496 98.496 74.848c7.328-3.824 15.44-6.032 23.712-6.368l25.536-53.584 1.536 59.328c6.64 3.264 12.56 7.824 17.44 13.472l31.552-11.184-23.040 24.272c3.168 6.752 4.928 14.016 5.216 21.408l53.584 25.536-59.36 1.536c-0.192 0.384-0.384 0.768-0.592 1.136l74.848 98.496zM256.048 257.728v0zM246.016 254.944c3.36 0.72 6.72 1.056 10.032 1.056 2.080 0 4.128-0.128 6.144-0.4l0.048-0.016v0.016c4.368-0.576 8.592-1.744 12.56-3.456l-35.776-27.184-27.184-35.776c-1.184 2.8-2.128 5.744-2.784 8.832-5.52 25.936 11.040 51.424 36.976 56.928zM281.056 167.056v0 0c-4.528-2.768-9.584-4.848-15.072-6.016-3.36-0.72-6.72-1.056-10.032-1.056-2.080 0-4.128 0.144-6.16 0.4h-0.032c-4.368 0.576-8.592 1.744-12.56 3.44l35.776 27.184 27.184 35.776c1.184-2.8 2.128-5.744 2.784-8.832 4.352-20.448-5.024-40.608-21.888-50.928z" />
<glyph unicode="&#xe615;" d="M255.024 480c-139.856 0-240.368-101.44-240.368-253.616 0-135.408 97.744-258.384 240.384-258.384 144.032 0 242.304 122.944 242.304 258.384 0 153.376-103.728 253.616-242.336 253.616zM344.176 230.736c-0.032-84.672-4.544-205.248-89.136-205.248v-0.016c-83.392 0-86.72 120.64-86.72 205.152 0 99.184 9.28 194.288 86.72 194.288 77.44 0 89.136-96.288 89.136-194.176z" />
<glyph unicode="&#xe616;" d="M367.104 165.584h118.032c0.912 8.192 1.28 16.544 1.28 25.104 0 40.112-10.768 77.728-29.568 110.128 19.44 51.648 18.752 95.488-7.28 121.696-24.752 24.64-91.152 20.64-166.208-12.592-5.552 0.416-11.152 0.64-16.816 0.64-103.024 0-189.456-70.896-213.36-166.432 32.32 41.376 66.32 71.376 111.744 93.216-4.128-3.872-28.224-27.824-32.288-31.888-119.776-119.744-157.552-276.16-116.896-316.8 30.896-30.88 86.88-25.664 151.184 5.824 29.904-15.232 63.744-23.808 99.616-23.808 96.56 0 178.4 62.16 208.048 148.72h-118.928c-16.368-30.192-48.368-50.736-85.104-50.736s-68.736 20.544-85.104 50.736c-7.28 13.632-11.456 29.28-11.456 45.824v0.368h193.136zM174.144 223.6c2.736 48.56 43.104 87.296 92.384 87.296s89.664-38.736 92.384-87.296h-184.768zM448.48 398.096c16.768-16.944 16.336-48.112 2-87.008-24.56 37.456-60.256 66.976-102.4 83.824 45.056 19.312 81.696 21.872 100.384 3.184zM46.736-3.632c-21.392 21.392-14.944 66.304 12.608 120.416 17.152-48.128 50.576-88.544 93.664-114.576-47.712-21.664-86.768-25.344-106.288-5.84z" />
<glyph unicode="&#xe617;" d="M395.744 207.952c-0.64 64.848 52.88 95.936 55.264 97.488-30.080 44.016-76.928 50.032-93.616 50.736-39.872 4.032-77.792-23.472-98.032-23.472-20.176 0-51.408 22.88-84.48 22.272-43.456-0.64-83.536-25.264-105.904-64.192-45.152-78.352-11.568-194.416 32.448-257.968 21.504-31.104 47.152-66.032 80.816-64.784 32.416 1.296 44.688 20.976 83.872 20.976 39.2 0 50.208-20.976 84.528-20.336 34.88 0.656 56.992 31.696 78.352 62.896 24.688 36.080 34.864 71.024 35.456 72.816-0.768 0.352-68.032 26.112-68.704 103.568zM331.28 398.24c17.872 21.68 29.936 51.76 26.64 81.76-25.744-1.056-56.944-17.152-75.408-38.768-16.576-19.184-31.072-49.808-27.184-79.216 28.736-2.24 58.064 14.608 75.952 36.224z" />
<glyph unicode="&#xe618;" d="M414 257.504q-11.008 42-45.504 69.248t-79.008 27.248q-17.008 0-34.496-5.008l-49.008 85.008q41.504 16.496 83.504 16.496 15.504 0 33.504-3.008-1.504-8-1.504-13.008 0-33.504 23.504-57.008t57.008-23.504q31.008 0 54.496 21.504 46-51.008 55.504-118h-98zM402 386q-20 0-34 14.256t-14 34.256 14 34 34 14 34-14 14-34-14-34.256-34-14.256zM199.504 133.504l-49.008-85.008q-58.496 46-78 116.496 25.008 8 40.496 29.008t15.504 47.504q0 23.504-12.496 43.008t-33.504 29.504q22 51.504 68 87.504l49.008-84.496q-38.496-38-38.496-91.744t38.496-91.744zM48.256 192.992q-19.744 0-34 14.256t-14.256 34.256 14.256 34 34 14 34-14 14.256-34-14.256-34.256-34-14.256zM255.008 101.504q17.504-5.008 34.496-5.008 44.496 0 79.008 27.248t45.504 69.248h98q-9.504-67.008-55.504-118-23.504 21.504-54.496 21.504-33.504 0-57.008-23.504t-23.504-57.008q0-5.008 1.504-13.008-18-3.008-33.504-3.008-43.008 0-83.504 16.496zM402 64.496q20 0 34-14.256t14-34.256-14-34-34-14-34 14-14 34 14 34.256 34 14.256z" />
<glyph unicode="&#xe619;" d="M0.176 224l-0.176 156.032 192 26.080v-182.112zM224 410.752l255.936 37.248v-224h-255.936zM480 192l-0.064-224-255.936 36v188zM192 8.080l-191.84 26.304-0.016 157.616h191.856z" />
<glyph unicode="&#xe61a;" d="M432 320c-17.6 0-32-14.4-32-32v-128c0-17.6 14.4-32 32-32s32 14.4 32 32v128c0 17.6-14.4 32-32 32zM48 320c-17.6 0-32-14.4-32-32v-128c0-17.6 14.4-32 32-32s32 14.4 32 32v128c0 17.6-14.4 32-32 32zM96 112c0-26.512 21.488-48 48-48h16v-64c0-17.6 14.4-32 32-32s32 14.4 32 32v64h32v-64c0-17.6 14.4-32 32-32s32 14.4 32 32v64h16c26.512 0 48 21.488 48 48v176h-288v-176zM299.296 435.248l20.256 38.896c1.024 1.952 0.256 4.384-1.696 5.392s-4.384 0.256-5.392-1.696l-20.56-39.488c-16.096 6.224-33.6 9.648-51.904 9.648-18.304 0-35.792-3.424-51.904-9.648l-20.56 39.488c-1.008 1.952-3.44 2.72-5.392 1.696s-2.72-3.44-1.696-5.392l20.256-38.912c-45.312-20.512-78.128-63.792-83.808-115.248h286.224c-5.68 51.456-38.496 94.736-83.808 115.248zM176 344.8c-12.816 0-23.2 10.384-23.2 23.2s10.384 23.2 23.2 23.2 23.2-10.384 23.2-23.2c0-12.816-10.384-23.2-23.2-23.2zM304 344.8c-12.816 0-23.2 10.384-23.2 23.2s10.384 23.2 23.2 23.2 23.2-10.384 23.2-23.2c0-12.816-10.384-23.2-23.2-23.2z" />
<glyph unicode="&#xe61b;" d="M492.496 328.496l-189.008-94.496c-13.328-6.672-29.168-10-47.504-10s-34.176 3.328-47.504 10l-189.008 94.496c-13.008 6.672-19.504 14.576-19.504 23.744s6.496 17.072 19.504 23.744l189.008 94.496c13.328 6.336 29.168 9.504 47.504 9.504s34.176-3.168 47.504-9.504l189.008-94.496c13.008-6.656 19.504-14.576 19.504-23.744s-6.496-17.072-19.504-23.744zM256 448l-224-96 224-96 224 96-224 96zM19.504 119.504l49.008 24.496 35.008-17.504-71.504-30.496 224-96 224 96-71.504 30.496 35.024 17.504 48.992-24.496c12.992-6.336 19.504-14.16 19.504-23.504s-6.496-17.168-19.504-23.504l-188.992-94.496c-13.344-6.656-29.2-10-47.52-10-18.336 0-34.176 3.344-47.504 10l-189.008 94.496c-13.008 6.336-19.504 14.16-19.504 23.504s6.496 17.168 19.504 23.504zM492.496 200.496l-189.008-94.496c-13.328-6.656-29.168-10-47.504-10s-34.176 3.344-47.504 10l-189.008 94.496c-12.992 6.656-19.504 14.576-19.504 23.744 0 9.152 6.496 16.912 19.504 23.232l49.008 24.496 35.008-17.52-71.504-30.48 224-96 224 96-71.52 30.48 35.008 17.52 49.008-24.496c13.024-6.32 19.52-14.16 19.52-23.488s-6.496-17.168-19.504-23.52v0.032z" />
<glyph unicode="&#xe61c;" d="M492.496 200.496l-189.008-94.496q-20-10-47.504-10t-47.504 10l-189.008 94.496q-19.504 10-19.504 23.744t19.504 23.744l49.008 24 35.008-17.504-71.504-30.496 224-96 224 96-71.504 30.496 35.008 17.504 49.008-24q19.504-10 19.504-23.744t-19.504-23.744zM492.496 328.496l-189.008-94.496q-20-10-47.504-10t-47.504 10l-189.008 94.496q-19.504 10-19.504 23.744t19.504 23.744l189.008 94.496q20 9.504 47.504 9.504t47.504-9.504l189.008-94.496q19.504-10 19.504-23.744t-19.504-23.744zM19.504 119.504l49.008 24.496 35.008-17.504-71.504-30.496 224-96 224 96-71.504 30.496 35.008 17.504 49.008-24.496q19.504-9.504 19.504-23.504t-19.504-23.504l-189.008-94.496q-20-10-47.504-10t-47.504 10l-189.008 94.496q-19.504 9.504-19.504 23.504t19.504 23.504z" />
<glyph unicode="&#xe61d;" d="M492.496 200.496l-189.008-94.496q-20-10-47.504-10t-47.504 10l-189.008 94.496q-19.504 10-19.504 23.744t19.504 23.248l49.008 24.496 140-70q20-10 47.504-10t47.504 10l140 70 49.008-24.496q19.504-9.504 19.504-23.504t-19.504-23.504zM492.496 328.496l-189.008-94.496q-20-10-47.504-10t-47.504 10l-189.008 94.496q-19.504 10-19.504 23.744t19.504 23.744l189.008 94.496q20 9.504 47.504 9.504t47.504-9.504l189.008-94.496q19.504-10 19.504-23.744t-19.504-23.744zM256 448l-224-96 224-96 224 96zM19.504 119.504l49.008 24.496 35.008-17.504-71.504-30.496 224-96 224 96-71.504 30.496 35.008 17.504 49.008-24.496q19.504-9.504 19.504-23.504t-19.504-23.504l-189.008-94.496q-20-10-47.504-10t-47.504 10l-189.008 94.496q-19.504 9.504-19.504 23.504t19.504 23.504z" />
<glyph unicode="&#xe61e;" d="M492.496 200.496l-189.008-94.496q-20-10-47.504-10t-47.504 10l-189.008 94.496q-19.504 10-19.504 23.744t19.504 23.248l49.008 24.496 35.008-17.504-71.504-30.496 224-96 224 96-71.504 30.496 35.008 17.504 49.008-24.496q19.504-9.504 19.504-23.504t-19.504-23.504zM492.496 328.496l-189.008-94.496q-20-10-47.504-10t-47.504 10l-189.008 94.496q-19.504 10-19.504 23.744t19.504 23.744l189.008 94.496q20 9.504 47.504 9.504t47.504-9.504l189.008-94.496q19.504-10 19.504-23.744t-19.504-23.744zM256 448l-224-96 224-96 224 96zM19.504 119.504l49.008 24.496 140-70q20-10 47.504-10t47.504 10l140 70 49.008-24.496q19.504-9.504 19.504-23.504t-19.504-23.504l-189.008-94.496q-20-10-47.504-10t-47.504 10l-189.008 94.496q-19.504 9.504-19.504 23.504t19.504 23.504z" />
<glyph unicode="&#xe61f;" d="M19.504 119.504l49.008 24.496 140-70c13.328-6.656 29.168-10 47.504-10s34.176 3.344 47.52 10l140 70 48.992-24.496c12.992-6.336 19.504-14.16 19.504-23.504s-6.496-17.168-19.504-23.504l-188.992-94.496c-13.344-6.656-29.2-10-47.52-10-18.336 0-34.176 3.344-47.504 10l-189.008 94.496c-13.008 6.336-19.504 14.16-19.504 23.504s6.496 17.168 19.504 23.504zM19.472 247.504l49.008 24.496 140-70c13.328-6.656 29.184-10 47.504-10s34.176 3.344 47.52 10l140 70 48.992-24.496c13.008-6.336 19.504-14.16 19.504-23.504s-6.496-17.168-19.504-23.504l-188.992-94.496c-13.344-6.656-29.184-10-47.52-10s-34.176 3.344-47.504 10l-189.008 94.496c-13.008 6.336-19.504 14.16-19.504 23.504s6.496 17.168 19.504 23.504zM492.528 328.512l-189.008-94.496c-13.328-6.656-29.168-10-47.504-10s-34.176 3.344-47.52 10l-188.992 94.496c-13.008 6.656-19.504 14.576-19.504 23.76 0 9.152 6.496 17.056 19.504 23.728l188.992 94.496c13.344 6.336 29.184 9.504 47.52 9.504s34.176-3.168 47.504-9.504l189.008-94.496c12.992-6.672 19.504-14.576 19.504-23.728 0-9.184-6.496-17.104-19.504-23.76z" />
<glyph unicode="&#xe620;" d="M384.048 287.472c-0.016-19.328-3.84-34.816-11.504-46.496-7.664-11.664-19.824-17.504-36.496-17.504h-16c-17.664 0-32.736-6.256-45.248-18.752-12.496-12.496-18.752-27.6-18.752-45.248 0 17.664-6.256 32.752-18.752 45.248s-27.584 18.752-45.248 18.752h-16c-16.656 0.016-28.832 5.856-36.496 17.504-7.664 11.664-11.504 27.152-11.504 46.496v144.528c-24.080 0-39.584 0-63.536 0v-144.512c0-18.32 1.68-34.992 5.008-50 3.328-15.008 8.656-28.416 16-40.256 7.328-11.824 17.328-21.072 30-27.744 12.656-6.672 27.488-10 44.496-10 17.664 0.016 32.752-6.144 45.248-18.48s18.752-27.344 18.752-45.008l-0.016-128h64l0.016 127.984c0 17.664 6.256 32.672 18.752 45.008 12.496 12.32 27.584 18.48 45.248 18.48 16.992 0.016 31.824 3.344 44.496 10s22.672 15.904 30 27.744c7.328 11.824 12.656 25.264 16 40.256 3.328 15.008 5.008 31.664 5.008 50v56.528c-23.936 0-39.44 0-63.488 0v-56.528zM384.048 431.984v-87.984c24.048 0 39.552 0 63.488 0v88zM64.512 432c23.952 0 39.456 0 63.536 0zM192.128 383.936l-96.048 96.064-96.064-96.064h72.032zM512 383.936l-96.048 96.064-96.064-96.064h72.048z" />
<glyph unicode="&#xe621;" d="M64-32v40c-21.328 0-42.672 0-64 0v-40zM223.984 431.504l0.016-71.504c24.224 0 39.792 0 64.032 0l-0.016 71.504zM474.528 186.496c-24.992 25.008-55.152 37.504-90.496 37.504h-32c-17.664 0-32.752 6.256-45.248 18.752s-18.752 27.584-18.752 45.248v72c-24.24 0-39.808 0-64.032 0v-72c0-17.664-6.256-32.752-18.752-45.248s-27.584-18.752-45.248-18.752h-32c-35.328 0-65.488-12.512-90.496-37.504-25.008-24.992-37.504-55.152-37.504-90.496v-88c21.328 0 42.672 0 64 0v88c0 17.664 6.256 32.752 18.752 45.248s27.584 18.752 45.248 18.752h64c17.664 0 32.752 6.256 45.248 18.752s18.752 27.584 18.752 45.248c0-17.664 6.256-32.752 18.752-45.248s27.584-18.752 45.248-18.752h64c17.664 0 32.752-6.256 45.248-18.752s18.752-27.584 18.752-45.248v-128h64.032v128c0 35.328-12.496 65.504-37.504 90.496zM352 383.936l-96.048 96.064-96.064-96.064h72.048z" />
<glyph unicode="&#xe622;" d="M386.384 308.64h18.096v-51.536l107.52 92.16-107.52 92.16v-61.104h-18.096c-94.544 0-147.872-70.064-194.912-131.888-42.32-55.6-78.848-103.632-137.888-103.632h-53.584v-71.712h53.584c94.56 0 147.872 70.096 194.944 131.92 42.288 55.632 78.816 103.632 137.856 103.632zM138.528 263.472c4.016 5.216 8.096 10.544 12.208 15.952 10.016 13.152 20.576 27.040 32.032 40.864-33.824 31.584-74.624 54.912-129.184 54.912h-53.584v-71.68h53.584c33.968 0 60.496-15.952 84.944-40.032zM404.48 139.696h-18.096c-36.016 0-63.648 17.888-89.344 44.496-2.592-3.36-5.152-6.752-7.76-10.192-11.296-14.8-23.456-30.752-36.832-46.496 34.736-33.888 76.832-59.488 133.936-59.488h18.096v-61.44l107.52 92.16-107.52 92.208v-51.248z" />
<glyph unicode="&#xe623;" d="M416-32q-26.496 0-45.248 18.752t-18.752 45.248q0 17.504 8.752 32t23.248 23.008v201.008q0 40-28 68t-68 28l-96 32 96 64v-32q43.504 0 80.256-21.504t58.256-58.256 21.504-80.256v-201.008q14.496-8.496 23.248-23.008t8.752-32q0-26.496-18.752-45.248t-45.248-18.752zM415.744 64q-13.248 0-22.496-9.248t-9.248-22.496 9.248-22.752 22.496-9.504 22.752 9.504 9.504 22.752-9.504 22.496-22.752 9.248zM160 32q0-26.496-18.752-45.248t-45.248-18.752-45.248 18.752-18.752 45.248q0 17.504 8.752 32t23.248 23.008v274q-14.496 8.496-23.248 23.008t-8.752 32q0 26.496 18.752 45.248t45.248 18.752 45.248-18.752 18.752-45.248q0-17.504-8.752-32t-23.248-23.008v-274q14.496-8.496 23.248-23.008t8.752-32zM95.744 448q-13.248 0-22.496-9.248t-9.248-22.496 9.248-22.752 22.496-9.504 22.752 9.504 9.504 22.752-9.504 22.496-22.752 9.248zM95.744 64q-13.248 0-22.496-9.248t-9.248-22.496 9.248-22.752 22.496-9.504 22.752 9.504 9.504 22.752-9.504 22.496-22.752 9.248z" />
<glyph unicode="&#xe624;" d="M496 288h-128q-6.496 0-11.248 4.752t-4.752 11.248v112q0 26.496 23.504 45.248t56.496 18.752 56.496-18.752 23.504-45.248v-112q0-6.496-4.752-11.248t-11.248-4.752zM432 448q-20 0-34-9.248t-14-22.752v-32h96v32q0 13.504-14 22.752t-34 9.248zM99.504 84.496q28.496-19.504 28.496-52.496 0-26.496-18.752-45.248t-45.248-18.752-45.248 18.752-18.752 45.248q0 17.504 8.752 32t23.248 23.008v361.008q0 13.008 9.248 22.496t22.752 9.504 22.752-9.504 9.248-22.496v-185.008q39.008 61.008 97.008 100.752t127.008 52.256v-64q-87.008-19.504-147.248-91.504t-73.248-176zM64.256 64q-13.248 0-22.752-9.248t-9.504-22.496 9.248-22.752 22.752-9.504 22.752 9.504 9.248 22.752-9.248 22.496-22.496 9.248z" />
<glyph unicode="&#xe625;" d="M475.504 400l32-32q4.496-4.496 4.496-10.752t-4.496-10.752l-21.504-22q-4.496-4.496-10.752-4.496t-10.752 4.496l-32.496 32.496-32.496-33.008q-4.496-4.496-10.752-4.496t-10.752 4.496l-22 22q-4.496 4.496-4.496 10.752t4.496 10.752l33.008 32.496-33.008 33.008q-4.496 4-4.496 10.496t4.496 11.008l22 21.504q4.496 4.496 10.752 4.496t10.752-4.496l32.496-32.496 32.496 32q4.496 4.496 10.752 4.496t10.752-4.496l21.504-21.504q4.496-4.496 4.496-10.752t-4.496-10.752zM99.504 84.496q28.496-19.504 28.496-52.496 0-26.496-18.752-45.248t-45.248-18.752-45.248 18.752-18.752 45.248q0 17.504 8.752 32t23.248 23.008v361.008q0 13.504 9.248 22.752t22.752 9.248 22.752-9.248 9.248-22.752v-185.008q39.008 61.008 97.008 100.752t127.008 52.256v-64q-87.008-19.504-147.248-91.504t-73.248-176zM64.256 64q-13.248 0-22.752-9.248t-9.504-22.496 9.248-22.752 22.752-9.504 22.752 9.504 9.248 22.752-9.248 22.496-22.496 9.248z" />
<glyph unicode="&#xe626;" d="M256 224q-69.504 0-128.496 8.496t-93.248 23.248-34.256 32.256v64q0 4 3.008 9.504 31.008-18.496 101.248-30t151.744-11.504 151.744 11.504 101.248 30q3.008-5.504 3.008-9.504v-64q0-17.504-34.256-32.256t-93.248-23.248-128.496-8.496zM256 352q-69.504 0-128.496 8.496t-93.248 23.248-34.256 32.256 34.256 32.256 93.248 23.248 128.496 8.496 128.496-8.496 93.248-23.248 34.256-32.256-34.256-32.256-93.248-23.248-128.496-8.496zM232 184.496q10 8 23.744 8t23.744-8l94.496-75.008q9.504-8 9.504-19.008t-9.744-18.752-23.504-7.744-23.744 8l-38.496 30.496v-102.496q0-13.008-9.248-22.496t-22.496-9.504-22.752 9.504-9.504 22.496v103.008l-39.008-31.008q-10-8-23.744-8t-23.504 7.744-9.744 18.752 9.504 19.008z" />
<glyph unicode="&#xe627;" d="M256 224q-69.504 0-128.496 8.496t-93.248 23.248-34.256 32.256v64q0 4 3.008 9.008 31.008-18 101.248-29.504t151.744-11.504 151.744 11.504 101.248 29.504q3.008-5.008 3.008-9.008v-64q0-17.504-34.256-32.256t-93.248-23.248-128.496-8.496zM256 352q-69.504 0-128.496 8.496t-93.248 23.248-34.256 32.256 34.256 32.256 93.248 23.248 128.496 8.496 128.496-8.496 93.248-23.248 34.256-32.256-34.256-32.256-93.248-23.248-128.496-8.496zM185.008 88.496l39.008-31.008v102.496q0 13.008 9.248 22.496t22.752 9.504 22.752-9.504 9.248-22.496v-102l38.496 30.496q10 8 23.744 8t23.504-8 9.744-19.008-9.504-18.496l-94.496-75.008q-10-8-23.744-8t-23.744 8l-94.496 75.008q-9.504 7.504-9.504 18.496t9.744 19.008 23.504 8 23.744-8z" />
<glyph unicode="&#xe628;" d="M0 32h512v-32h-512zM512 96v-32h-512v32l64 128h128v-64h128v64h128zM112 320l144 144 144-144h-112v-128h-64v128z" />
<glyph unicode="&#xe629;" d="M416 448h-320l-96-96v-336c0-8.832 7.168-16 16-16h480c8.832 0 16 7.168 16 16v336l-96 96zM320 160v-96h-128v96h-96l160 128 160-128h-96zM77.248 384l32 32h293.488l32-32h-357.488z" />
<glyph unicode="&#xe62a;" d="M416 448h-320l-96-96v-336c0-8.832 7.168-16 16-16h480c8.832 0 16 7.168 16 16v336l-96 96zM256 64l-160 128h96v96h128v-96h96l-160-128zM77.248 384l32 32h293.488l32-32h-357.488z" />
<glyph unicode="&#xe62b;" d="M446.128 286.752c1.216 5.552 1.872 11.328 1.872 17.248 0 44.176-35.824 80-80 80-7.104 0-14-0.928-20.56-2.672-12.4 38.672-48.64 66.672-91.44 66.672-43.68 0-80.528-29.168-92.16-69.088-11.376 3.312-23.392 5.088-35.84 5.088-70.688 0-128-57.312-128-128 0-70.688 57.312-128 128-128h64v-96h128v96h112c44.176 0 80 35.824 80 80 0 39.36-28.432 72.080-65.872 78.752zM288 160v-96h-64v96h-80l112 112 112-112h-80z" />
<glyph unicode="&#xe62c;" d="M445.504 299.968c-1.616 64.352-54.224 116.032-118.928 116.032-37.904 0-71.632-17.744-93.424-45.36-12.224 15.792-31.344 25.984-52.848 25.984-36.912 0-66.816-29.936-66.816-66.864 0-3.216 0.24-6.384 0.688-9.472-5.616 1.008-11.376 1.568-17.28 1.568-53.504 0-96.864-43.392-96.864-96.928 0-53.536 43.36-96.928 96.864-96.928h49.888l109.248-109.248 109.248 109.248h59.744c48.064 0.096 87.008 39.104 87.008 87.216 0 41.040-28.336 75.456-66.496 84.736zM256 64l-96 96h64v96h64v-96h64l-96-96z" />
<glyph unicode="&#xe62d;" d="M224 208h64v128h96l-128 128-128-128h96zM320 280v-49.36l146.528-54.64-210.528-78.512-210.528 78.512 146.528 54.64v49.36l-192-72v-128l256-96 256 96v128z" />
<glyph unicode="&#xe62e;" d="M256 208l128 128h-96v128h-64v-128h-96zM372.368 260.368l-35.872-35.872 130.048-48.496-210.528-78.512-210.528 78.512 130.032 48.496-35.872 35.872-139.632-52.368v-128l256-96 256 96v128z" />
<glyph unicode="&#xe62f;" d="M512 151.232c0 41.040-28.336 75.456-66.496 84.736-1.616 64.352-54.224 116.032-118.928 116.032-37.904 0-71.632-17.744-93.424-45.36-12.224 15.792-31.344 25.984-52.848 25.984-36.912 0-66.816-29.936-66.816-66.864 0-3.216 0.24-6.384 0.688-9.472-5.616 1.008-11.376 1.568-17.28 1.568-53.504 0-96.864-43.392-96.864-96.928 0-53.536 43.36-96.928 96.864-96.928h328.128c48.064 0.096 87.008 39.104 87.008 87.216z" />
<glyph unicode="&#xe630;" d="M64 320h320v-96l128 128-128 128v-96h-384v-192h64zM448 128h-320v96l-128-128 128-128v96h384v192h-64z" />
<glyph unicode="&#xe631;" d="M160 160v96h96l-128 128-128-128h96v-160h192l-64 64zM416 192v160h-192l64-64h64v-96h-96l128-128 128 128z" />
<glyph unicode="&#xe632;" d="M512 300.928c0 81.232-65.856 147.072-147.072 147.072-43.184 0-82.016-18.608-108.928-48.24-26.912 29.632-65.744 48.24-108.928 48.24-81.232 0-147.072-65.856-147.072-147.072 0-43.184 18.608-82.016 48.24-108.928h-0.24l160-160c16-16 32-32 48-32s32 16 48 32l159.76 160c29.632 26.912 48.24 65.744 48.24 108.928zM420.736 239.376l-161.984-162.128c-0.832-0.832-1.76-1.76-2.752-2.736-0.976 0.976-1.904 1.904-2.752 2.736l-161.984 162.128c-17.584 15.968-27.264 37.824-27.264 61.536 0 45.808 37.264 83.072 83.072 83.072 23.712 0 45.568-9.68 61.536-27.264l47.392-52.192 47.392 52.192c15.968 17.584 37.824 27.264 61.536 27.264 45.808 0 83.072-37.264 83.072-83.072 0-23.712-9.68-45.568-27.264-61.536z" />
<glyph unicode="&#xe633;" d="M512 300.928c0-43.184-18.608-82.016-48.24-108.928h0.24l-160-160c-16-16-32-32-48-32s-32 16-48 32l-159.76 160c-29.632 26.912-48.24 65.744-48.24 108.928 0 81.232 65.856 147.072 147.072 147.072 43.184 0 82.016-18.608 108.928-48.24 26.912 29.632 65.744 48.24 108.928 48.24 81.232 0 147.072-65.856 147.072-147.072z" />
<glyph unicode="&#xe634;" d="M512 300.928c0-43.184-18.608-82.016-48.24-108.928h0.24l-160-160c-16-16-32-32-48-32s-32 16-48 32l-159.76 160c-29.632 26.912-48.24 65.744-48.24 108.928 0 81.232 65.856 147.072 147.072 147.072 27.728 0 53.648-7.68 75.792-21.024l-46.864-74.976 112-64-64-160 176 192-112 64 39.44 59.168c11.968 3.136 24.528 4.832 37.472 4.832 81.232 0 147.072-65.856 147.072-147.072z" />
<glyph unicode="&#xe635;" d="M421.008 185.264c-6.832 6.72-21.952 10.288-44.992 10.592-15.584 0.176-34.352-1.2-54.080-3.968-8.832 5.104-17.952 10.64-25.088 17.328-19.232 17.952-35.28 42.88-45.296 70.304 0.656 2.56 1.2 4.816 1.728 7.104 0 0 10.832 61.536 7.968 82.336-0.4 2.848-0.64 3.68-1.408 5.904l-0.944 2.416c-2.944 6.8-8.72 14-17.776 13.6l-5.456 0.176c-10.096 0-18.336-5.168-20.496-12.88-6.576-24.224 0.208-60.448 12.496-107.376l-3.152-7.648c-8.8-21.44-19.808-43.024-29.536-62.080l-1.264-2.48c-10.224-20.016-19.52-37.008-27.92-51.408l-8.688-4.592c-0.64-0.336-15.52-8.208-19.008-10.32-29.632-17.696-49.264-37.776-52.512-53.712-1.040-5.088-0.272-11.6 5.008-14.608l8.4-4.224c3.648-1.824 7.488-2.752 11.424-2.752 21.104 0 45.6 26.288 79.344 85.184 38.96 12.688 83.328 23.232 122.208 29.040 29.632-16.688 66.064-28.272 89.072-28.272 4.080 0 7.6 0.384 10.464 1.152 4.416 1.168 8.128 3.68 10.4 7.104 4.464 6.72 5.36 15.968 4.16 25.44-0.368 2.816-2.608 6.288-5.040 8.656zM105.824 72.976c3.84 10.528 19.072 31.328 41.6 49.776 1.408 1.152 4.896 4.416 8.096 7.456-23.552-37.568-39.328-52.528-49.696-57.232zM239.216 380.16c6.784 0 10.64-17.104 10.96-33.12s-3.424-27.28-8.080-35.6c-3.856 12.32-5.712 31.744-5.712 44.448 0 0-0.288 24.272 2.832 24.272zM199.424 161.248c4.72 8.464 9.648 17.376 14.672 26.832 12.24 23.152 19.984 41.28 25.744 56.176 11.456-20.848 25.728-38.56 42.496-52.752 2.096-1.776 4.304-3.552 6.64-5.328-34.112-6.752-63.584-14.96-89.536-24.928zM414.448 163.168c-2.080-1.296-8.032-2.048-11.856-2.048-12.352 0-27.632 5.648-49.056 14.832 8.24 0.608 15.776 0.912 22.544 0.912 12.384 0 16.064 0.048 28.176-3.040s12.272-9.36 10.192-10.672zM451.712 380.288l-71.44 71.424c-15.552 15.552-46.288 28.288-68.288 28.288h-240c-22 0-40-18-40-40v-432c0-22 18-40 40-40h368c22 0 40 18 40 40v304c0 22-12.736 52.736-28.288 68.288zM429.088 357.664c1.568-1.568 3.12-3.488 4.64-5.664h-81.728v81.728c2.176-1.52 4.096-3.072 5.664-4.64l71.44-71.424zM448 8c0-4.336-3.664-8-8-8h-368c-4.336 0-8 3.664-8 8v432c0 4.336 3.664 8 8 8h240c2.416 0 5.12-0.304 8-0.848v-127.152h127.152c0.544-2.88 0.848-5.584 0.848-8v-304z" />
<glyph unicode="&#xe636;" d="M319.888 242.048h22.112l-25.504-113.088-33.168 159.008h-53.28l-38.56-159.008-28.912 159.008h-55.696l56.544-255.936h54.416l38.144 151.36 34.128-151.36h50.176l64.816 255.936h-85.216zM451.712 380.288l-71.44 71.424c-15.552 15.552-46.288 28.288-68.288 28.288h-240c-22 0-40-18-40-40v-432c0-22 18-40 40-40h368c22 0 40 18 40 40v304c0 22-12.736 52.736-28.288 68.288zM429.088 357.664c1.568-1.568 3.12-3.488 4.64-5.664h-81.728v81.728c2.176-1.52 4.096-3.072 5.664-4.64l71.44-71.424zM448 8c0-4.336-3.664-8-8-8h-368c-4.336 0-8 3.664-8 8v432c0 4.336 3.664 8 8 8h240c2.416 0 5.12-0.304 8-0.848v-127.152h127.152c0.544-2.88 0.848-5.584 0.848-8v-304z" />
<glyph unicode="&#xe637;" d="M371.52 288h-67.648l-47.872-70.512-47.872 70.512h-67.648l81.088-121.232-91.488-134.768h131.12v45.792h-30.272l25.072 37.504 55.696-83.28h70.224l-91.488 134.768zM451.712 380.288l-71.44 71.424c-15.552 15.552-46.288 28.288-68.288 28.288h-240c-22 0-40-18-40-40v-432c0-22 18-40 40-40h368c22 0 40 18 40 40v304c0 22-12.736 52.736-28.288 68.288zM429.088 357.664c1.568-1.568 3.12-3.488 4.64-5.664h-81.728v81.728c2.176-1.52 4.096-3.072 5.664-4.64l71.44-71.424zM448 8c0-4.336-3.664-8-8-8h-368c-4.336 0-8 3.664-8 8v432c0 4.336 3.664 8 8 8h240c2.416 0 5.12-0.304 8-0.848v-127.152h127.152c0.544-2.88 0.848-5.584 0.848-8v-304z" />
<glyph unicode="&#xe638;" d="M283.312 468.688c-6.224 6.224-18.512 11.312-27.312 11.312h-192c-8.8 0-16-7.2-16-16v-480c0-8.8 7.2-16 16-16h384c8.8 0 16 7.2 16 16v288c0 8.8-5.088 21.088-11.312 27.312l-169.376 169.376zM432 0h-352v448h175.584c1.456-0.24 4.208-1.376 5.408-2.24l168.784-168.784c0.864-1.2 2-3.952 2.24-5.408v-271.584zM448 480h-96c-8.8 0-10.912-5.088-4.688-11.312l105.376-105.376c6.224-6.224 11.312-4.112 11.312 4.688v96c0 8.8-7.2 16-16 16z" />
<glyph unicode="&#xe639;" d="M345.104 244.16c-30.336 14.32-68.992 17.216-97.424-3.024 34.576 3.296 72.48-2.416 97.552-28.56 24 27.536 62.064 32.704 96.48 29.872-28.736 19.072-66.608 16.512-96.608 1.712zM332.832 177.12c-34.192 0.784-67.216-11.584-95.552-30.048-53.584 22.8-121.36 18.56-167.008-19.488 13.168 0.464 26 3.728 39.024 5.392 47.584 4.736 98.288-7.072 134.256-39.904 14.88 21.776 35.824 39.12 59.824 49.968 31.536 15.264 67.072 16.848 101.408 17.264-20.848 14.32-47.312 16.976-71.968 16.832zM451.712 380.288l-71.44 71.424c-15.552 15.552-46.288 28.288-68.288 28.288h-240c-22 0-40-18-40-40v-432c0-22 18-40 40-40h368c22 0 40 18 40 40v304c0 22-12.736 52.736-28.288 68.288zM429.088 357.664c1.568-1.568 3.12-3.488 4.64-5.664h-81.728v81.728c2.176-1.52 4.096-3.072 5.664-4.64l71.44-71.424zM448 8c0-4.336-3.664-8-8-8h-368c-4.336 0-8 3.664-8 8v432c0 4.336 3.664 8 8 8h240c2.416 0 5.12-0.304 8-0.848v-127.152h127.152c0.544-2.88 0.848-5.584 0.848-8v-304z" />
<glyph unicode="&#xe63a;" d="M96 224h96v-32h-96v32zM96 160h96v-32h-96v32zM96 96h96v-32h-96v32zM451.712 380.288l-71.44 71.424c-15.552 15.552-46.288 28.288-68.288 28.288h-240c-22 0-40-18-40-40v-432c0-22 18-40 40-40h368c22 0 40 18 40 40v304c0 22-12.736 52.736-28.288 68.288zM429.088 357.664c1.568-1.568 3.12-3.488 4.64-5.664h-81.728v81.728c2.176-1.52 4.096-3.072 5.664-4.64l71.44-71.424zM448 8c0-4.336-3.664-8-8-8h-368c-4.336 0-8 3.664-8 8v432c0 4.336 3.664 8 8 8h240c2.416 0 5.12-0.304 8-0.848v-127.152h127.152c0.544-2.88 0.848-5.584 0.848-8v-304zM288 128h94.4c-7.408-36.512-39.696-64-78.4-64-44.176 0-80 35.824-80 80 0 38.704 27.488 70.976 64 78.4v-94.4zM336 256c44.176 0 80-35.824 80-80 0-5.472-0.56-10.832-1.6-16h-94.4v94.4c5.168 1.056 10.528 1.6 16 1.6z" />
<glyph unicode="&#xe63b;" d="M208 416h48v-32h-48zM160 384h48v-32h-48zM208 352h48v-32h-48zM160 320h48v-32h-48zM208 288h48v-32h-48zM160 256h48v-32h-48zM208 224v-32h-48v-112c0-8.832 7.168-16 16-16h64c8.832 0 16 7.168 16 16v144h-48zM240 96h-64v32h64v-32zM451.712 380.288l-71.44 71.424c-15.552 15.552-46.288 28.288-68.288 28.288h-240c-22 0-40-18-40-40v-432c0-22 18-40 40-40h368c22 0 40 18 40 40v304c0 22-12.736 52.736-28.288 68.288zM429.088 357.664c1.568-1.568 3.12-3.488 4.64-5.664h-81.728v81.728c2.176-1.52 4.096-3.072 5.664-4.64l71.44-71.424zM448 8c0-4.336-3.664-8-8-8h-368c-4.336 0-8 3.664-8 8v432c0 4.336 3.664 8 8 8h240c2.416 0 5.12-0.304 8-0.848v-127.152h127.152c0.544-2.88 0.848-5.584 0.848-8v-304z" />
<glyph unicode="&#xe63c;" d="M224 192l-32 32-96-96 96-96 32 32-64 64zM288 64l32-32 96 96-96 96-32-32 64-64zM451.712 380.288l-71.44 71.424c-15.552 15.552-46.288 28.288-68.288 28.288h-240c-22 0-40-18-40-40v-432c0-22 18-40 40-40h368c22 0 40 18 40 40v304c0 22-12.736 52.736-28.288 68.288zM429.088 357.664c1.568-1.568 3.12-3.488 4.64-5.664h-81.728v81.728c2.176-1.52 4.096-3.072 5.664-4.64l71.44-71.424zM448 8c0-4.336-3.664-8-8-8h-368c-4.336 0-8 3.664-8 8v432c0 4.336 3.664 8 8 8h240c2.416 0 5.12-0.304 8-0.848v-127.152h127.152c0.544-2.88 0.848-5.584 0.848-8v-304z" />
<glyph unicode="&#xe63d;" d="M192 174.272v57.12c0 7.568 3.344 14.72 9.424 20.144s14.096 8.416 22.576 8.416v28.56c-35.2 0-64-25.696-64-57.104v-42.832c0-7.888-7.168-14.272-16-14.272h-16v-28.56h16c8.832 0 16-6.4 16-14.272v-42.832c0-31.408 28.8-57.104 64-57.104v28.56c-8.48 0-16.496 2.992-22.576 8.416-6.080 5.424-9.424 12.576-9.424 20.144v57.12c0 7.888-7.168 14.272-16 14.272 8.832 0 16 6.4 16 14.272zM320 145.728v-57.12c0-7.568-3.344-14.72-9.424-20.144s-14.096-8.416-22.576-8.416v-28.56c35.2 0 64 25.696 64 57.104v42.832c0 7.888 7.168 14.272 16 14.272h16v28.56h-16c-8.832 0-16 6.4-16 14.272v42.832c0 31.408-28.8 57.104-64 57.104v-28.56c8.48 0 16.496-2.992 22.576-8.416 6.080-5.424 9.424-12.576 9.424-20.144v-57.12c0-7.888 7.168-14.272 16-14.272-8.832 0-16-6.4-16-14.272zM451.712 380.288l-71.44 71.424c-15.552 15.552-46.288 28.288-68.288 28.288h-240c-22 0-40-18-40-40v-432c0-22 18-40 40-40h368c22 0 40 18 40 40v304c0 22-12.736 52.736-28.288 68.288zM429.088 357.664c1.568-1.568 3.12-3.488 4.64-5.664h-81.728v81.728c2.176-1.52 4.096-3.072 5.664-4.64l71.44-71.424zM448 8c0-4.336-3.664-8-8-8h-368c-4.336 0-8 3.664-8 8v432c0 4.336 3.664 8 8 8h240c2.416 0 5.12-0.304 8-0.848v-127.152h127.152c0.544-2.88 0.848-5.584 0.848-8v-304z" />
<glyph unicode="&#xe63e;" d="M256 400c-27.472 0-54-4.336-78.848-12.864-23.36-8.032-44.16-19.376-61.808-33.728-33.104-26.896-51.344-61.488-51.344-97.408 0-20.144 5.6-39.696 16.624-58.080 11.376-18.96 28.496-36.288 49.488-50.128 15.184-10 25.392-25.968 28.080-43.952 0.896-6 1.456-12.048 1.68-18.064 3.728 3.104 7.376 6.416 10.944 9.984 12.080 12.080 28.384 18.752 45.248 18.752 2.688 0 5.376-0.176 8.080-0.512 10.48-1.328 21.2-2.016 31.84-2.016 27.472 0 54 4.336 78.848 12.864 23.36 8.032 44.16 19.376 61.808 33.728 33.104 26.896 51.344 61.488 51.344 97.408 0 35.92-18.24 70.512-51.344 97.408-17.664 14.352-38.464 25.696-61.808 33.728-24.848 8.544-51.376 12.864-78.848 12.864zM256 464v0c141.392 0 256-93.12 256-208s-114.608-208-256-208c-13.584 0-26.912 0.864-39.92 2.528-54.992-54.992-120.624-64.848-184.080-66.304v13.456c34.272 16.784 64 47.376 64 82.32 0 4.88-0.384 9.664-1.088 14.352-57.904 38.128-94.912 96.384-94.912 161.648 0 114.88 114.608 208 256 208z" />
<glyph unicode="&#xe63f;" d="M209.938 392.75c-22.261 0-43.762-3.488-63.886-10.378-18.858-6.454-35.648-15.567-49.88-27.084-26.382-21.347-40.922-48.699-40.922-76.978 0-15.82 4.429-31.177 13.148-45.661 9.085-15.089 22.809-28.913 39.67-39.966 13.374-8.775 22.387-22.824 24.764-38.644 0.393-2.63 0.717-5.274 0.957-7.931 1.196 1.111 2.376 2.25 3.572 3.432 10.603 10.561 24.905 16.397 39.698 16.397 2.349 0 4.711-0.154 7.073-0.45 8.508-1.083 17.198-1.632 25.819-1.632 22.261 0 43.762 3.488 63.886 10.378 18.858 6.454 35.649 15.567 49.88 27.084 26.381 21.347 40.922 48.698 40.922 76.978 0 28.293-14.526 55.631-40.922 76.978-14.231 11.517-31.022 20.63-49.88 27.084-20.124 6.891-41.625 10.378-63.886 10.378zM209.938 449v0c116.493 0 210.938-76.43 210.938-170.704s-94.444-170.704-210.938-170.704c-11.194 0-22.162 0.717-32.892 2.067-45.31-45.127-97.636-53.226-149.921-54.408v11.039c28.237 13.781 50.977 38.883 50.977 67.556 0 4.008-0.309 7.931-0.886 11.771-47.7 31.289-78.216 79.101-78.216 132.666 0 94.275 94.444 170.704 210.938 170.704zM436.695 66.373c0-24.582 15.961-46.097 40.43-57.909v-9.464c-45.324 1.012-86.921 7.959-126.183 46.632-9.296-1.167-18.801-1.772-28.505-1.772-41.949 0-80.606 11.32-111.445 30.333 63.577 0.225 123.596 20.587 169.115 57.431 22.936 18.563 41.048 40.359 53.789 64.758 13.514 25.875 20.377 53.423 20.377 81.914 0 4.584-0.197 9.154-0.548 13.697 31.894-26.339 51.525-62.24 51.525-101.813 0-45.914-26.438-86.892-67.781-113.709-0.507-3.291-0.774-6.666-0.774-10.097z" />
<glyph unicode="&#xe640;" d="M481 52.986c0-19.997 11.433-37.308 28.125-45.788v-7.003c-4.669-0.633-9.437-0.985-14.288-0.985-29.883 0-56.841 12.543-75.909 32.639-11.517-3.065-23.738-4.725-36.38-4.725-69.904 0-126.563 50.373-126.563 112.5 0 62.128 56.658 112.5 126.563 112.5 69.904 0 126.563-50.372 126.563-112.5 0-24.328-8.69-46.842-23.442-65.25-2.995-6.511-4.683-13.767-4.683-21.403zM104.251 351.8c-29.096-23.639-45.127-54.042-45.127-85.613 0-17.704 4.922-34.889 14.611-51.047 9.999-16.664 25.046-31.894 43.495-44.058 13.345-8.789 22.317-22.824 24.679-38.63 0.787-5.274 1.28-10.589 1.476-15.877 3.276 2.728 6.483 5.639 9.619 8.775 10.617 10.617 24.947 16.481 39.769 16.481 2.363 0 4.725-0.154 7.101-0.45 9.211-1.167 18.605-1.758 27.942-1.772v-56.25c-11.925 0-23.625 0.76-35.044 2.222-48.333-48.333-106.017-56.995-161.789-58.275v11.827c30.122 14.752 56.25 41.639 56.25 72.351 0 4.289-0.338 8.493-0.957 12.614-50.892 33.511-83.419 84.712-83.419 142.073 0 100.969 100.73 182.813 225 182.813 122.372 0 221.921-79.368 224.93-178.2-18.057 8.043-37.73 12.923-58.12 14.315-5.063 24.637-19.954 47.827-43.171 66.685-15.525 12.614-33.806 22.584-54.324 29.644-21.839 7.51-45.154 11.306-69.3 11.306-24.145 0-47.461-3.811-69.3-11.306-20.531-7.060-38.813-17.029-54.323-29.644z" />
<glyph unicode="&#xe641;" d="M256 464c141.392 0 256-93.12 256-208s-114.608-208-256-208c-13.584 0-26.912 0.864-39.92 2.528-54.992-54.992-120.624-64.848-184.080-66.304v13.456c34.272 16.784 64 47.376 64 82.32 0 4.88-0.384 9.664-1.088 14.352-57.904 38.128-94.912 96.384-94.912 161.648 0 114.88 114.608 208 256 208z" />
<glyph unicode="&#xe642;" d="M209.938 449v0c116.493 0 210.938-76.43 210.938-170.704s-94.444-170.704-210.938-170.704c-11.194 0-22.162 0.717-32.892 2.067-45.31-45.127-97.636-53.226-149.921-54.408v11.039c28.237 13.781 50.977 38.883 50.977 67.556 0 4.008-0.309 7.931-0.886 11.771-47.7 31.289-78.216 79.101-78.216 132.666 0 94.275 94.444 170.704 210.938 170.704zM436.695 66.373c0-24.582 15.961-46.097 40.43-57.909v-9.464c-45.324 1.012-86.921 7.959-126.183 46.632-9.296-1.167-18.801-1.772-28.505-1.772-41.949 0-80.606 11.32-111.445 30.333 63.577 0.225 123.596 20.587 169.115 57.431 22.936 18.563 41.048 40.359 53.789 64.758 13.514 25.875 20.377 53.423 20.377 81.914 0 4.584-0.197 9.154-0.548 13.697 31.894-26.339 51.525-62.24 51.525-101.813 0-45.914-26.438-86.892-67.781-113.709-0.507-3.291-0.774-6.666-0.774-10.097z" />
<glyph unicode="&#xe643;" d="M481 52.986c0-19.997 11.433-37.308 28.125-45.788v-7.003c-4.669-0.633-9.436-0.985-14.288-0.985-29.883 0-56.841 12.543-75.909 32.639-11.517-3.065-23.738-4.725-36.38-4.725-69.904 0-126.563 50.372-126.563 112.5 0 62.128 56.658 112.5 126.563 112.5 69.904 0 126.563-50.372 126.563-112.5 0-24.328-8.69-46.842-23.442-65.25-2.995-6.511-4.683-13.767-4.683-21.403zM227.875 449c122.372 0 221.921-79.369 224.929-178.2-21.614 9.633-45.52 14.724-70.242 14.724-41.99 0-81.661-14.696-111.685-41.386-31.135-27.675-48.276-64.786-48.276-104.513 0-19.632 4.19-38.63 12.192-56.151-2.292-0.057-4.599-0.099-6.918-0.099-11.939 0-23.653 0.76-35.086 2.222-48.333-48.333-106.017-56.995-161.789-58.275v11.827c30.122 14.752 56.25 41.639 56.25 72.351 0 4.289-0.338 8.494-0.956 12.614-50.892 33.511-83.419 84.713-83.419 142.074 0 100.969 100.73 182.813 225 182.813z" />
<glyph unicode="&#xe644;" d="M0 480v-512h512v512h-512zM480 0h-448v448h448v-448z" />
<glyph unicode="&#xe645;" d="M0 480v-512h512v512h-512zM480 0h-448v448h448v-448zM384 368l-160-160-96 96-64-64 160-160 224 224-64 64z" />
<glyph unicode="&#xe646;" d="M0 480v-512h512v512h-512zM480 0h-448v448h448v-448zM128 352h256v-256h-256z" />
<glyph unicode="&#xe647;" d="M256 480c-141.392 0-256-114.608-256-256s114.608-256 256-256 256 114.608 256 256-114.608 256-256 256zM256 32c-106.032 0-192 85.968-192 192s85.968 192 192 192c106.032 0 192-85.968 192-192 0-106.032-85.968-192-192-192z" />
<glyph unicode="&#xe648;" d="M256 480c-141.392 0-256-114.608-256-256s114.608-256 256-256 256 114.608 256 256-114.608 256-256 256zM256 32c-106.032 0-192 85.968-192 192s85.968 192 192 192c106.032 0 192-85.968 192-192 0-106.032-85.968-192-192-192zM160 224c0 53.024 42.976 96 96 96s96-42.976 96-96c0-53.024-42.976-96-96-96-53.024 0-96 42.976-96 96z" />
<glyph unicode="&#xe649;" d="M256-32q-52.496 0-101.008 21.008 14 10.496 23.008 25.504 38-14.496 78-14.496 45.504 0 87.008 17.744t71.504 47.744 47.744 71.504 17.744 87.008-17.744 87.008-47.744 71.504-71.504 47.744-87.008 17.744-87.008-17.744-71.504-47.744-47.744-71.504-17.744-87.008q0-40 14.496-78-15.008-9.008-25.504-23.008-21.008 48.496-21.008 101.008 0 52 20.256 99.504t54.496 81.744 81.744 54.496 99.504 20.256 99.504-20.256 81.744-54.496 54.496-81.744 20.256-99.504-20.256-99.504-54.496-81.744-81.744-54.496-99.504-20.256zM256 352q53.008 0 90.496-37.504t37.504-90.496-37.504-90.496-90.496-37.504-90.496 37.504-37.504 90.496 37.504 90.496 90.496 37.504zM96 128q26.496 0 45.248-18.752t18.752-45.248-18.752-45.248-45.248-18.752-45.248 18.752-18.752 45.248 18.752 45.248 45.248 18.752z" />
<glyph unicode="&#xe64a;" d="M451.712 380.288l-71.44 71.424c-15.552 15.552-46.288 28.288-68.288 28.288h-240c-22 0-40-18-40-40v-432c0-22 18-40 40-40h368c22 0 40 18 40 40v304c0 22-12.736 52.736-28.288 68.288zM429.088 357.664c1.568-1.568 3.12-3.488 4.64-5.664h-81.728v81.728c2.176-1.52 4.096-3.072 5.664-4.64l71.44-71.424zM448 8c0-4.336-3.664-8-8-8h-368c-4.336 0-8 3.664-8 8v432c0 4.336 3.664 8 8 8h240c2.416 0 5.12-0.304 8-0.848v-127.152h127.152c0.544-2.88 0.848-5.584 0.848-8v-304z" />
<glyph unicode="&#xe64b;" d="M400 320v80c0 8.8-7.2 16-16 16h-112v32c0 17.6-14.4 32-32 32h-64c-17.6 0-32-14.4-32-32v-32h-112c-8.8 0-16-7.2-16-16v-320c0-8.8 7.2-16 16-16h144v-96h224l96 96v256h-96zM176 447.936c0.016 0.016 0.032 0.032 0.064 0.064h63.888c0.016-0.016 0.048-0.032 0.064-0.064v-31.936h-64v31.936zM80 352v32h256v-32h-256zM400 13.248v50.752h50.752l-50.752-50.752zM464 96h-96v-96h-160v288h256v-192z" />
<glyph unicode="&#xe64c;" d="M416 352h-96v32l-96 96h-224v-384h192v-128h320v288l-96 96zM416 306.752l50.752-50.752h-50.752v50.752zM224 434.752l50.752-50.752h-50.752v50.752zM32 448h160v-96h96v-224h-256v320zM480 0h-256v96h96v224h64v-96h96v-224z" />
<glyph unicode="&#xe64d;" d="M432 416h-32v-32h16v-256h-128v-128h-192v384h16v32h-32c-8.8 0-16-7.2-16-16v-416c0-8.8 7.2-16 16-16h252l116 116v316c0 8.8-7.2 16-16 16zM320 0v96h96l-96-96zM384 416h-64v32c0 17.6-14.4 32-32 32h-64c-17.6 0-32-14.4-32-32v-32h-64v-64h256v64zM288 416h-64v31.936c0.016 0.016 0.032 0.032 0.064 0.064h63.888c0.016-0.016 0.048-0.032 0.064-0.064v-31.936z" />
<glyph unicode="&#xe64e;" d="M336 416h-64v32c0 17.6-14.4 32-32 32h-64c-17.6 0-32-14.4-32-32v-32h-64v-64h256v64zM240 416h-64v31.936c0.016 0.016 0.032 0.032 0.064 0.064h63.888c0.016-0.016 0.048-0.032 0.064-0.064v-31.936zM400 320v80c0 8.8-7.2 16-16 16h-32v-32h16v-64h-192v-224h-128v288h16v32h-32c-8.8 0-16-7.2-16-16v-320c0-8.8 7.2-16 16-16h144v-96h224l96 96v256h-96zM400 13.248v50.752h50.752l-50.752-50.752zM464 96h-96v-96h-160v288h256v-192z" />
<glyph unicode="&#xe64f;" d="M192 384h64v-32h-64zM288 384h64v-32h-64zM448 384v-128h-96v32h64v64h-32v32zM160 288h64v-32h-64zM256 288h64v-32h-64zM96 352v-64h32v-32h-64v128h96v-32zM192 192h64v-32h-64zM288 192h64v-32h-64zM448 192v-128h-96v32h64v64h-32v32zM160 96h64v-32h-64zM256 96h64v-32h-64zM96 160v-64h32v-32h-64v128h96v-32zM480 448h-448v-448h448v448zM512 480v0-512h-512v512h512z" />
<glyph unicode="&#xe650;" d="M229.664 150.080l-85.328-147.84h282.32l85.328 147.84zM487.808 192l-146.464 253.744h-170.672l146.48-253.744zM146.416 403.744l-146.416-253.664 85.344-147.84 146.416 253.664z" />
<glyph unicode="&#xe651;" d="M257.173 431.344c23.542 0 46.115-3.95 67.264-11.227 1.968 3.095 3.877 6.187 5.835 9.282-22.864 8.143-47.491 12.606-73.099 12.606-25.686 0-50.358-4.481-73.259-12.649 1.825-3.080 3.492-6.234 5.050-9.546 21.383 7.44 44.337 11.534 68.209 11.534zM125.124 63.525c-46.164 38.113-75.636 95.757-75.636 160.17 0 64.866 29.944 122.88 76.734 160.973-2.308 3.234-5.087 5.417-8.296 6.971-48.272-40.059-79.061-100.477-79.061-167.944 0-66.889 30.243-126.841 77.74-166.906 3.222 1.663 6.073 3.979 8.519 6.736zM257.173 16.007c-24.989 0-48.972 4.416-71.168 12.54-1.893-3.117-3.592-6.275-5.053-9.413 23.716-8.904 49.404-13.75 76.221-13.75 25.491 0 49.938 4.389 72.716 12.46-0.946 3.451-1.726 6.897-2.93 10.232-21.838-7.783-45.304-12.069-69.786-12.069zM394.014 53.702c-2.83 1.863-5.339 4.53-7.625 7.577zM326.959 28.078c1.204-3.334 1.985-6.783 2.93-10.232zM475.482 223.695c0 69.64-32.811 131.824-83.776 171.821-2.427-2.337-4.373-5.531-6.093-8.87 48.243-38.029 79.245-96.938 79.245-162.951 0-65.728-30.73-124.34-78.469-162.415 2.284-3.048 4.795-5.714 7.625-7.577 49.627 40.036 81.467 101.353 81.467 169.992zM117.926 391.639c3.209-1.555 5.989-3.738 8.296-6.971zM188.967 419.807c-1.559 3.311-3.226 6.465-5.050 9.546zM330.273 429.398c-1.958-3.095-3.866-6.187-5.835-9.282zM385.614 386.646c1.721 3.338 3.666 6.533 6.093 8.87zM334.418 435.63c-5.058-7.248-9.068-14.53-14.168-21.776zM382.503 379.898c3.588 8.020 7.815 18.145 16.38 19.179zM257.173 424.087c22.055 0 43.211-3.654 63.077-10.236 5.099 7.248 9.11 14.531 14.168 21.776-24.13 8.813-50.161 13.666-77.245 13.666-27.121 0-53.127-4.841-77.263-13.654 4.839-7.010 8.536-14.248 12.079-22.497 20.452 7.035 42.363 10.944 65.184 10.944zM109.882 394.384c9.102-2.144 15.702-5.78 19.783-16.325zM191.99 413.145c-3.541 8.25-7.239 15.487-12.079 22.498zM129.425 69.386c-44.339 36.766-72.644 92.297-72.644 154.309 0 62.094 28.401 117.613 72.884 154.366-4.079 10.543-10.683 14.181-19.784 16.325-47.903-41.403-78.309-102.558-78.309-170.691 0-67.615 29.892-128.295 77.099-169.681 9.013 1.581 16.103 7.616 20.755 15.373zM257.173 23.263c-23.585 0-46.217 4.151-67.277 11.688-4.797-7.686-9.161-14.74-11.585-22.625 24.559-9.177 51.108-14.272 78.862-14.272 26.292 0 51.519 4.565 74.963 12.827-3.154 8.041-3.834 16.597-8.204 23.845-20.898-7.363-43.337-11.462-66.758-11.462zM482.738 223.695c0 70.74-32.69 133.987-83.856 175.382-8.565-1.034-12.792-11.161-16.38-19.18 45.726-36.743 75.029-93.102 75.029-156.203 0-63.107-29.303-119.507-75.045-156.242 4.821-8.692 11.161-15.87 19.491-16.61 49.308 41.411 80.761 103.538 80.761 172.851zM401.976 50.844c-8.327 0.74-14.668 7.918-19.491 16.61zM323.932 34.726c4.37-7.246 5.050-15.805 8.204-23.845zM348.25-31.604l-92.748 164.841-92.743-164.538-5.226 0.205c-18.645 0.88-36.511 2.164-53.102 3.748-16.646 1.583-31.471 3.31-44.083 5.063-14.788 1.932-28.602 3.983-41.005 6.099l-7.053 1.255v101.688l11.176-3.738c3.657-1.255 9.033-2.717 15.929-4.352 6.996-1.735 15.049-3.59 23.902-5.526 8.829-1.938 18.237-3.838 27.941-5.661 7.746-1.448 15.383-2.818 22.764-4.012l90.296 160.219-90.221 161.010c-7.496-1.385-15.133-2.728-22.95-4.108-9.765-1.712-19.142-3.523-27.91-5.313-8.737-1.825-16.728-3.629-23.823-5.337-6.785-1.647-12.017-3.162-15.53-4.547l-11.575-4.489v102.289l7.054 1.216c12.438 2.156 26.252 4.244 41.046 6.177 12.587 1.706 27.41 3.395 44.042 5.019 16.673 1.626 34.539 2.872 53.106 3.748l5.222 0.242 92.969-164.631 92.715 164.639 5.224-0.242c18.587-0.877 36.446-2.124 52.935-3.752 16.524-1.622 31.384-3.311 44.237-5.024 14.805-1.939 28.861-4.024 41.681-6.172l7.096-1.188v-101.873l-11.309 3.954c-4.016 1.417-9.623 2.959-16.611 4.626-7.103 1.692-15.184 3.5-23.982 5.348-8.835 1.794-18.133 3.606-27.822 5.313-7.707 1.385-15.298 2.765-22.698 4.111l-90.778-161.104 90.401-160.073 102.896 21.938-0.875-96.719-7.026-1.224c-12.677-2.12-26.667-4.253-41.425-6.202-12.692-2.454-27.439-4.87-43.827-7.187-16.437-2.337-34.312-4.161-52.984-5.363l-5.325-0.373zM255.514 167.873l102.275-181.813c16.313 1.235 31.926 2.841 46.395 4.866 16.163 2.296 30.738 4.684 43.238 7.104l0.5 0.144c11.966 1.563 23.388 3.197 34.091 4.948l0.533 61.332-94.38-20.177-101.257 179.319 101.413 180.046 6.007-1.127c9.269-1.724 18.8-3.451 28.592-5.208 9.743-1.731 19.245-3.565 28.213-5.427 9.019-1.837 17.244-3.678 24.486-5.404 2.548-0.615 4.874-1.179 6.988-1.769v64.142c-10.619 1.698-22.018 3.351-33.954 4.897-12.702 1.7-27.394 3.398-43.671 4.969-14.715 1.438-30.452 2.595-46.834 3.449l-102.408-181.754-102.605 181.744c-16.417-0.852-32.242-2.007-47.059-3.443-16.41-1.607-31.013-3.275-43.419-4.962-11.868-1.534-23.052-3.176-33.401-4.868v-63.988c1.895 0.506 3.949 1.018 6.127 1.577 7.291 1.747 15.474 3.588 24.406 5.406 8.907 1.858 18.465 3.692 28.41 5.432 9.838 1.72 19.446 3.477 28.752 5.204l5.98 1.129 100.85-179.966-100.802-178.932-5.829 0.948c-9.29 1.571-19.091 3.236-29.026 5.108-9.888 1.849-19.448 3.781-28.457 5.748-8.993 1.958-17.152 3.84-24.285 5.597-2.183 0.522-4.238 1.028-6.128 1.514v-64.272c10.326-1.655 21.504-3.332 33.327-4.864 12.466-1.733 27.064-3.363 43.492-5.003 14.752-1.433 30.538-2.55 47.051-3.406l102.392 181.764z" />
<glyph unicode="&#xe652;" d="M257.173 431.344c23.542 0 46.115-3.95 67.264-11.227 1.968 3.095 3.877 6.187 5.835 9.282-22.864 8.143-47.491 12.606-73.099 12.606-25.686 0-50.358-4.481-73.259-12.649 1.825-3.080 3.492-6.234 5.050-9.546 21.383 7.44 44.337 11.534 68.209 11.534zM125.124 63.525c-46.164 38.113-75.636 95.757-75.636 160.17 0 64.866 29.944 122.88 76.734 160.973-2.308 3.234-5.087 5.417-8.296 6.971-48.272-40.059-79.061-100.477-79.061-167.944 0-66.889 30.243-126.841 77.74-166.906 3.222 1.663 6.073 3.979 8.519 6.736zM257.173 16.007c-24.989 0-48.972 4.416-71.168 12.54-1.893-3.117-3.592-6.275-5.053-9.413 23.716-8.904 49.404-13.75 76.221-13.75 25.491 0 49.938 4.389 72.716 12.46-0.946 3.451-1.726 6.897-2.93 10.232-21.838-7.783-45.304-12.069-69.786-12.069zM394.014 53.702c-2.83 1.863-5.339 4.53-7.625 7.577zM326.959 28.078c1.204-3.334 1.985-6.783 2.93-10.232zM475.482 223.695c0 69.64-32.811 131.824-83.776 171.821-2.427-2.337-4.373-5.531-6.093-8.87 48.243-38.029 79.245-96.938 79.245-162.951 0-65.728-30.73-124.34-78.469-162.415 2.284-3.048 4.795-5.714 7.625-7.577 49.627 40.036 81.467 101.353 81.467 169.992zM117.926 391.639c3.209-1.555 5.989-3.738 8.296-6.971zM188.967 419.807c-1.559 3.311-3.226 6.465-5.050 9.546zM330.273 429.398c-1.958-3.095-3.866-6.187-5.835-9.282zM385.614 386.646c1.721 3.338 3.666 6.533 6.093 8.87zM334.418 435.63c-5.058-7.248-9.068-14.53-14.168-21.776zM382.503 379.898c3.588 8.020 7.815 18.145 16.38 19.179zM257.173 424.087c22.055 0 43.211-3.654 63.077-10.236 5.099 7.248 9.11 14.531 14.168 21.776-24.13 8.813-50.161 13.666-77.245 13.666-27.121 0-53.127-4.841-77.263-13.654 4.839-7.010 8.536-14.248 12.079-22.497 20.452 7.035 42.363 10.944 65.184 10.944zM109.882 394.384c9.102-2.144 15.702-5.78 19.783-16.325zM191.99 413.145c-3.541 8.25-7.239 15.487-12.079 22.498zM129.425 69.386c-44.339 36.766-72.644 92.297-72.644 154.309 0 62.094 28.401 117.613 72.884 154.366-4.079 10.543-10.683 14.181-19.784 16.325-47.903-41.403-78.309-102.558-78.309-170.691 0-67.615 29.892-128.295 77.099-169.681 9.013 1.581 16.103 7.616 20.755 15.373zM257.173 23.263c-23.585 0-46.217 4.151-67.277 11.688-4.797-7.686-9.161-14.74-11.585-22.625 24.559-9.177 51.108-14.272 78.862-14.272 26.292 0 51.519 4.565 74.963 12.827-3.154 8.041-3.834 16.597-8.204 23.845-20.898-7.363-43.337-11.462-66.758-11.462zM482.738 223.695c0 70.74-32.69 133.987-83.856 175.382-8.565-1.034-12.792-11.161-16.38-19.18 45.726-36.743 75.029-93.102 75.029-156.203 0-63.107-29.303-119.507-75.045-156.242 4.821-8.692 11.161-15.87 19.491-16.61 49.308 41.411 80.761 103.538 80.761 172.851zM401.976 50.844c-8.327 0.74-14.668 7.918-19.491 16.61zM323.932 34.726c4.37-7.246 5.050-15.805 8.204-23.845zM348.25-31.604l-92.748 164.841-92.743-164.538-5.226 0.205c-18.645 0.88-36.511 2.164-53.102 3.748-16.646 1.583-31.471 3.31-44.083 5.063-14.788 1.932-28.602 3.983-41.005 6.099l-7.053 1.255v101.688l11.176-3.738c3.657-1.255 9.033-2.717 15.929-4.352 6.996-1.735 15.049-3.59 23.902-5.526 8.829-1.938 18.237-3.838 27.941-5.661 7.746-1.448 15.383-2.818 22.764-4.012l90.296 160.219-90.221 161.010c-7.496-1.385-15.133-2.728-22.95-4.108-9.765-1.712-19.142-3.523-27.91-5.313-8.737-1.825-16.728-3.629-23.823-5.337-6.785-1.647-12.017-3.162-15.53-4.547l-11.575-4.489v102.289l7.054 1.216c12.438 2.156 26.252 4.244 41.046 6.177 12.587 1.706 27.41 3.395 44.042 5.019 16.673 1.626 34.539 2.872 53.106 3.748l5.222 0.242 92.969-164.631 92.715 164.639 5.224-0.242c18.587-0.877 36.446-2.124 52.935-3.752 16.524-1.622 31.384-3.311 44.237-5.024 14.805-1.939 28.861-4.024 41.681-6.172l7.096-1.188v-101.873l-11.309 3.954c-4.016 1.417-9.623 2.959-16.611 4.626-7.103 1.692-15.184 3.5-23.982 5.348-8.835 1.794-18.133 3.606-27.822 5.313-7.707 1.385-15.298 2.765-22.698 4.111l-90.778-161.104 90.401-160.073 102.896 21.938-0.875-96.719-7.026-1.224c-12.677-2.12-26.667-4.253-41.425-6.202-12.692-2.454-27.439-4.87-43.827-7.187-16.437-2.337-34.312-4.161-52.984-5.363l-5.325-0.373zM255.514 167.873l102.275-181.813c16.313 1.235 31.926 2.841 46.395 4.866 16.163 2.296 30.738 4.684 43.238 7.104l0.5 0.144c11.966 1.563 23.388 3.197 34.091 4.948l0.533 61.332-94.38-20.177-101.257 179.319 101.413 180.046 6.007-1.127c9.269-1.724 18.8-3.451 28.592-5.208 9.743-1.731 19.245-3.565 28.213-5.427 9.019-1.837 17.244-3.678 24.486-5.404 2.548-0.615 4.874-1.179 6.988-1.769v64.142c-10.619 1.698-22.018 3.351-33.954 4.897-12.702 1.7-27.394 3.398-43.671 4.969-14.715 1.438-30.452 2.595-46.834 3.449l-102.408-181.754-102.605 181.744c-16.417-0.852-32.242-2.007-47.059-3.443-16.41-1.607-31.013-3.275-43.419-4.962-11.868-1.534-23.052-3.176-33.401-4.868v-63.988c1.895 0.506 3.949 1.018 6.127 1.577 7.291 1.747 15.474 3.588 24.406 5.406 8.907 1.858 18.465 3.692 28.41 5.432 9.838 1.72 19.446 3.477 28.752 5.204l5.98 1.129 100.85-179.966-100.802-178.932-5.829 0.948c-9.29 1.571-19.091 3.236-29.026 5.108-9.888 1.849-19.448 3.781-28.457 5.748-8.993 1.958-17.152 3.84-24.285 5.597-2.183 0.522-4.238 1.028-6.128 1.514v-64.272c10.326-1.655 21.504-3.332 33.327-4.864 12.466-1.733 27.064-3.363 43.492-5.003 14.752-1.433 30.538-2.55 47.051-3.406l102.392 181.764zM255.779 296.153l95.587 169.67c18.135-0.85 35.281-2.050 51.432-3.629 16.147-1.579 30.499-3.236 43.059-4.901 14.459-1.919 27.964-3.887 40.522-6.013v-81.048c-4.288 1.495-9.941 3.093-17.076 4.778-7.139 1.719-15.024 3.479-23.784 5.29-8.698 1.802-17.889 3.535-27.443 5.251-9.558 1.719-18.931 3.404-28.055 5.122l-94.122-167.108 93.831-166.224c8.997 1.902 18.322 3.863 27.925 5.941 9.661 2.017 18.837 4.018 27.658 5.882 8.757 1.861 16.322 3.498 22.642 4.844 6.314 1.348 12.486 2.664 18.447 3.887l-0.717-77.428c-12.501-2.087-26.005-4.137-40.526-6.036-12.419-2.455-26.695-4.786-42.767-7.047-16.014-2.265-33.123-4.010-51.325-5.18l-95.508 169.804-95.588-169.661c-18.137 0.852-35.361 2.079-51.6 3.627-16.239 1.608-30.55 3.199-42.892 4.899-14.461 1.884-27.748 3.916-39.879 5.98v81.046c3.83-1.224 9.249-2.757 16.263-4.473 7.045-1.657 14.883-3.459 23.615-5.419 8.728-1.901 17.933-3.756 27.613-5.56 9.679-1.81 19.096-3.479 28.225-4.946l93.591 166.109-93.59 167.053c-9.13-1.718-18.549-3.401-28.225-5.116-9.681-1.719-18.885-3.449-27.613-5.253-8.733-1.806-16.57-3.57-23.615-5.284-7.014-1.688-12.435-3.283-16.263-4.778v81.048c12.131 2.126 25.42 4.096 39.879 6.009 12.341 1.665 26.653 3.32 42.892 4.899 16.239 1.575 33.463 2.775 51.603 3.625l95.803-169.66z" />
<glyph unicode="&#xe653;" d="M192 224c0 35.344 28.656 64 64 64s64-28.656 64-64c0-35.344-28.656-64-64-64-35.344 0-64 28.656-64 64zM332.176 364.736c49.92-27.072 83.824-79.952 83.824-140.736s-33.904-113.664-83.824-140.736c22.032 35.056 35.824 85.136 35.824 140.736 0 55.6-13.792 105.68-35.824 140.736zM144 224c0-55.6 13.792-105.68 35.824-140.736-49.92 27.072-83.824 79.952-83.824 140.736 0 60.784 33.904 113.664 83.824 140.736-22.032-35.056-35.824-85.136-35.824-140.736zM48 224c0-85.952 27.2-163.088 70.32-215.856-71.152 45.472-118.32 125.152-118.32 215.856 0 90.704 47.168 170.384 118.32 215.856-43.12-52.768-70.32-129.904-70.32-215.856zM393.68 439.856c71.152-45.472 118.32-125.152 118.32-215.856s-47.168-170.384-118.32-215.856c43.12 52.768 70.32 129.904 70.32 215.856 0 85.952-27.2 163.088-70.32 215.856z" />
<glyph unicode="&#xe654;" d="M352 480h-192l-96-64v-128h384v128l-96 64zM320 320h-32v21.328c0 5.872-4.8 10.672-10.672 10.672h-42.672c-5.872 0-10.672-4.8-10.672-10.672v-21.328h-32v53.328c0 5.872 4.8 10.672 10.672 10.672h106.672c5.872 0 10.672-4.8 10.672-10.672v-53.328zM64 128h384v128h-384v-128zM192 213.328c0 5.872 4.8 10.672 10.672 10.672h106.672c5.872 0 10.672-4.8 10.672-10.672v-53.328h-32v21.328c0 5.872-4.8 10.672-10.672 10.672h-42.672c-5.872 0-10.672-4.8-10.672-10.672v-21.328h-32v53.328zM64-32h384v128h-384v-128zM192 53.328c0 5.872 4.8 10.672 10.672 10.672h106.672c5.872 0 10.672-4.8 10.672-10.672v-53.328h-32v21.328c0 5.872-4.8 10.672-10.672 10.672h-42.672c-5.872 0-10.672-4.8-10.672-10.672v-21.328h-32v53.328z" />
<glyph unicode="&#xe655;" d="M0 256v48h60l120.496 120.512c-0.8 2.384-1.488 4.816-1.488 7.488 0 13.264 10.736 24 24 24 13.248 0 24-10.736 24-24 0-13.248-10.752-24-24-24-1.776 0-3.344 0.656-4.992 1.008l-105.024-105.008h309.664l-104.4 105.264c-2.064-0.576-4.032-1.264-6.256-1.264-13.248 0-24 10.752-24 24 0 13.264 10.752 24 24 24s24-10.736 24-24c0-2.448-0.72-4.688-1.408-6.928l121.072-121.072h60.336v-48h-496zM397.904 17.568c-4.688-18.752-17.68-17.712-17.68-17.712l-265.52-0.512c-13.536 0-17.168 17.152-17.168 17.152l-70.192 223.28 441.184 0.416-70.624-222.624zM159.984 208h-16v-80h16v80zM159.984 112h-16v-80h16v80zM191.984 208h-15.984v-80h15.984v80zM191.984 112h-15.984v-80h15.984v80zM223.984 208h-16v-80h16v80zM223.984 112h-16v-80h16v80zM256 208h-16v-80h16v80zM256 112h-16v-80h16v80zM288 208h-16v-80h16v80zM288 112h-16v-80h16v80zM320 208h-16v-80h16v80zM320 112h-16v-80h16v80zM352 208h-16v-80h16v80zM352 112h-16v-80h16v80z" />
<glyph unicode="&#xe656;" d="M92.16 32.853c0-30.139 24.474-54.613 54.614-54.613 30.174 0 54.613 24.474 54.613 54.613s-24.44 54.613-54.613 54.613c-30.139 0-54.614-24.474-54.614-54.613zM365.226 32.853c0-30.139 24.474-54.613 54.613-54.613 30.174 0 54.613 24.474 54.613 54.613s-24.44 54.613-54.613 54.613c-30.139 0-54.613-24.474-54.613-54.613zM189.013 161.962l302.25 86.341c5.769 1.673 10.479 7.919 10.479 13.927v150.186h-385.024v46.421c0 6.008-4.881 10.923-10.922 10.923h-84.65c-6.008 0-10.922-4.915-10.922-10.923v-43.69h53.060l53.743-247.313 5.189-25.753v-40.96c0-6.007 4.915-10.923 10.889-10.923h357.751c5.974 0 10.889 4.915 10.889 10.923v40.96h-307.149c-31.369 0-32.034 12.288-5.598 19.882z" />
<glyph unicode="&#xe657;" d="M267.552 130.192c-7.296 6.912-15.808 12.224-25.104 15.536l-19.488 75.888 232.096 64.928 24.864-96.896-212.368-59.456zM193.664 335.696l154.736 43.28 24.88-96.928-154.72-43.28-24.896 96.928zM200.608 147.184c-4.32-1.216-8.336-2.944-12.24-4.848l-68.224 265.84h-25.664c-2.576-5.616-7.968-9.568-14.336-9.568h-32.032c-8.848 0-16.016 7.504-16.016 16.736s7.168 16.72 16.016 16.72h32.032c5.376 0 9.888-2.944 12.8-7.152h49.28v-0.816l0.736 0.224 70.56-274.928c-4.304-0.4-8.608-1.024-12.912-2.208zM204.752 131.024c29.904 8.368 60.64-10.16 68.656-41.408 8.016-31.216-9.728-63.312-39.648-71.68-29.904-8.336-60.64 10.192-68.656 41.408s9.744 63.312 39.648 71.68zM196.32 66.976c3.424-13.376 16.608-21.312 29.424-17.712s20.416 17.344 16.992 30.72c-3.424 13.376-16.608 21.312-29.424 17.744-12.832-3.6-20.432-17.36-16.992-30.752zM477.92 132.784l-186.944-52.288c-0.336 4.464-0.96 8.976-2.112 13.472-1.136 4.496-2.784 8.72-4.624 12.784l185.968 52 7.712-25.968z" />
<glyph unicode="&#xe658;" d="M352 384h-352v-64h352v-96l128 128-128 128zM480 480v-256h32v256zM160 224l-128-128 128-128v96h352v64h-352zM0 224v-256h32v256z" />
<glyph unicode="&#xe659;" d="M96 320v-352h64v352h96l-128 128-128-128zM0 448h256v32h-256zM256 128l128-128 128 128h-96v352h-64v-352zM256-32h256v32h-256z" />
<glyph unicode="&#xe65a;" d="M420.576 224q0 33.424-13.008 63.856t-35.136 52.576-52.576 35.136-63.856 13.008-63.856-13.008-52.576-35.136-35.136-52.576-13.008-63.856 13.008-63.856 35.136-52.576 52.576-35.136 63.856-13.008 63.856 13.008 52.576 35.136 35.136 52.576 13.008 63.856zM499.424 144.864q-1.136-4.288-5.712-5.712l-83.424-27.424v-87.424q0-4.576-3.712-7.424-4.288-2.864-8.288-1.136l-83.424 26.864-51.424-70.864q-2.864-3.712-7.424-3.712t-7.424 3.712l-51.424 70.864-83.424-26.864q-4-1.712-8.288 1.136-3.712 2.864-3.712 7.424v87.424l-83.424 27.424q-4.576 1.424-5.712 5.712-1.424 4.864 1.136 8.288l51.424 70.864-51.424 70.864q-2.576 3.712-1.136 8.288 1.136 4.288 5.712 5.712l83.424 27.424v87.424q0 4.576 3.712 7.424 4.288 2.864 8.288 1.136l83.424-26.864 51.424 70.864q2.576 3.424 7.424 3.424t7.424-3.424l51.424-70.864 83.424 26.864q4 1.712 8.288-1.136 3.712-2.864 3.712-7.424v-87.424l83.424-27.424q4.576-1.424 5.712-5.712 1.424-4.576-1.136-8.288l-51.424-70.864 51.424-70.864q2.576-3.424 1.136-8.288z" />
<glyph unicode="&#xe65b;" d="M428.495 91.69q-17.55-2.93-35.754-2.93-59.164 0-109.554 29.255t-79.644 79.644-29.255 109.554q0 62.423 33.806 116.054-65.336-19.497-106.787-74.438t-41.452-124.827q0-42.252 16.584-80.791t44.382-66.319 66.319-44.382 80.791-16.584q46.803 0 88.911 19.988t71.689 55.76zM494.486 119.325q-30.565-65.991-92.169-105.495t-134.422-39.503q-50.718 0-96.865 19.825t-79.644 53.321-53.321 79.644-19.825 96.865q0 49.735 18.696 95.082t50.718 78.515 76.55 53.485 94.281 22.264q14.309 0.656 19.825-12.671 5.844-13.326-4.879-23.411-27.962-25.359-42.744-59t-14.8-71.034q0-48.114 23.738-88.746t64.371-64.37 88.747-23.738q38.357 0 74.111 16.584 13.326 5.844 23.411-4.224 4.551-4.551 5.698-11.050t-1.457-12.361z" />
<glyph unicode="&#xe65c;" d="M3.566 457.017v-485.452h485.452v485.452h-485.452zM158.91-9.017h-135.927v446.616h135.927v-446.616zM469.599-9.017h-291.271v446.616h291.271v-446.616z" />
<glyph unicode="&#xe65d;" d="M3.566 457.017v-485.452h485.452v485.452h-485.452zM99.451-9.017h-76.469v330.107h76.469v-330.107zM372.509-9.017h-252.435v330.107h252.435v-330.107zM469.599-9.017h-77.672v330.107h77.672v-330.107zM469.599 340.509h-446.616v97.090h446.616v-97.090z" />
<glyph unicode="&#xe65e;" d="M3.566 457.017v-485.452h485.452v485.452h-485.452zM236.582-9.017h-213.599v330.107h213.599v-330.107zM469.599-9.017h-213.599v330.107h213.599v-330.107zM469.599 340.509h-446.616v97.090h446.616v-97.090z" />
<glyph unicode="&#xe65f;" d="M3.566 457.017v-485.452h485.452v485.452h-485.452zM158.91-9.017h-135.927v330.107h135.927v-330.107zM469.599-9.017h-291.271v155.344h291.271v-155.345zM469.599 165.745h-291.271v155.345h291.271v-155.345zM469.599 340.509h-446.616v97.090h446.616v-97.090z" />
<glyph unicode="&#xe660;" d="M3.566 457.017v-485.452h485.452v485.452h-485.452zM158.91-9.017h-135.927v446.616h135.927v-446.616zM469.599-9.017h-291.271v213.599h291.271v-213.599zM469.599 224h-291.271v213.599h291.271v-213.599z" />
<glyph unicode="&#xe661;" d="M3.566 457.017v-485.452h485.452v485.452h-485.452zM314.255-9.017h-291.271v330.107h291.271v-330.107zM469.599-9.017h-135.926v330.107h135.927v-330.107zM469.599 340.509h-446.616v97.090h446.616v-97.090z" />
<glyph unicode="&#xe662;" d="M3.566 457.017v-485.452h485.452v485.452h-485.452zM158.91-9.017h-135.927v330.107h135.927v-330.107zM469.599-9.017h-291.271v330.107h291.271v-330.107zM469.599 340.509h-446.616v97.090h446.616v-97.090z" />
<glyph unicode="&#xe663;" d="M3.566 457.017v-485.452h485.452v485.452h-485.452zM469.599-9.017h-446.616v330.107h446.616v-330.107zM469.599 340.509h-446.616v97.090h446.616v-97.090z" />
<glyph unicode="&#xe664;" d="M3.566 457.017v-485.452h485.452v485.452h-485.452zM158.91-9.017h-135.927v135.926h135.927v-135.927zM158.91 146.328h-135.927v135.927h135.927v-135.927zM158.91 301.672h-135.927v135.926h135.927v-135.926zM314.255-9.017h-135.927v135.926h135.927v-135.927zM314.255 146.328h-135.927v135.927h135.927v-135.927zM314.255 301.672h-135.927v135.926h135.927v-135.926zM469.599-9.017h-135.926v135.926h135.927v-135.927zM469.599 146.328h-135.926v135.927h135.927v-135.927zM469.599 301.672h-135.926v135.926h135.927v-135.926z" />
<glyph unicode="&#xe665;" d="M3.566 457.017v-485.452h485.452v485.452h-485.452zM236.582-9.017h-213.599v213.599h213.599v-213.599zM236.582 224h-213.599v213.599h213.599v-213.599zM469.599-9.017h-213.599v213.599h213.599v-213.599zM469.599 224h-213.599v213.599h213.599v-213.599z" />
<glyph unicode="&#xe666;" d="M3.566 457.017v-485.452h485.452v485.452h-485.452zM469.599-9.017h-446.616v135.926h446.616v-135.927zM469.599 146.328h-446.616v135.927h446.616v-135.927zM469.599 301.672h-446.616v135.926h446.616v-135.926z" />
<glyph unicode="&#xe667;" d="M3.566 457.017v-485.452h485.452v485.452h-485.452zM314.255-9.017h-291.271v446.616h291.271v-446.616zM469.599-9.017h-135.926v446.616h135.927v-446.616z" />
<glyph unicode="&#xe668;" d="M455.666 374.442c7.919-14.965 11.851-33.46 11.851-55.688 0-50.445-21.263-91.168-63.734-122.079-42.526-30.93-101.909-46.367-178.203-46.367h-17.858c-13.434 0-26.852-10.541-29.856-23.447l-21.445-91.423c-3.004-12.925-16.421-23.502-29.856-23.502h-39.085l-3.495-14.945c-3.022-12.907 5.48-23.483 18.878-23.483h62.586c13.435 0 26.888 10.541 29.819 23.483l21.463 91.459c3.022 12.853 16.421 23.411 29.856 23.411h17.858c76.277 0 135.678 15.438 178.167 46.403 42.562 30.875 63.843 71.561 63.843 122.079 0 22.228-3.933 40.723-11.851 55.67-7.901 14.855-19.406 26.979-34.406 36.208-1.602 0.965-2.913 1.347-4.569 2.239zM117.446 73.887l21.463 91.459c3.022 12.853 16.402 23.411 29.856 23.411h17.858c76.277 0 135.678 15.438 178.167 46.403 42.489 30.911 63.752 71.598 63.752 122.079 0 22.228-3.933 40.723-11.887 55.67-7.901 14.855-19.406 26.979-34.37 36.208-15.346 9.376-33.387 15.911-54.267 19.715-20.88 3.75-45.383 5.68-73.51 5.68h-130.344c-13.454 0-26.888-10.486-29.91-23.411l-88.146-377.159c-3.022-12.925 5.479-23.502 18.878-23.502h62.587c13.454 0 26.906 10.541 29.856 23.483zM168.583 292.703l18.823 80.063c3.022 12.907 16.457 23.447 29.819 23.447h20.498c23.848 0 41.979-4.023 54.085-11.997 12.142-7.919 18.241-20.134 18.241-36.7 0-25.013-9.466-44.364-28.253-57.926-18.824-13.544-44.965-20.389-78.752-20.389h-15.492c-13.453 0-21.936 10.595-18.969 23.502z" />
<glyph unicode="&#xe669;" d="M445.71 292.565q0 21.435-15 36.435t-36.435 15h-17.145v-102.855h17.145q21.435 0 36.435 15t15 36.435zM0 86.855h480q0-28.395-20.085-48.48t-48.48-20.085h-342.855q-28.395 0-48.48 20.085t-20.085 48.48zM497.145 292.565q0-42.585-30.135-72.72t-72.72-30.135h-17.145v-8.565q0-24.645-17.685-42.315t-42.315-17.685h-188.565q-24.645 0-42.315 17.685t-17.685 42.315v197.145q0 6.96 5.085 12.060t12.060 5.085h308.565q42.585 0 72.72-30.135t30.135-72.72z" />
<glyph unicode="&#xe66a;" d="M109.712 166.864q0 15.136-10.72 25.856t-25.856 10.72-25.856-10.72-10.72-25.856 10.72-25.856 25.856-10.72 25.856 10.72 10.72 25.856zM164.576 294.864q0 15.136-10.72 25.856t-25.856 10.72-25.856-10.72-10.72-25.856 10.72-25.856 25.856-10.72 25.856 10.72 10.72 25.856zM286.864 157.424l28.864 109.136q1.712 7.424-2.144 13.856t-11.008 8.432-13.712-1.856-8.576-11.28l-28.864-109.136q-17.136-1.424-30.576-12.432t-18-28.144q-5.712-22 5.712-41.712t33.424-25.424 41.712 5.712 25.424 33.424q4.576 17.136-1.712 33.424t-20.576 26zM475.424 166.864q0 15.136-10.72 25.856t-25.856 10.72-25.856-10.72-10.72-25.856 10.72-25.856 25.856-10.72 25.856 10.72 10.72 25.856zM292.576 349.712q0 15.136-10.72 25.856t-25.856 10.72-25.856-10.72-10.72-25.856 10.72-25.856 25.856-10.72 25.856 10.72 10.72 25.856zM420.576 294.864q0 15.136-10.72 25.856t-25.856 10.72-25.856-10.72-10.72-25.856 10.72-25.856 25.856-10.72 25.856 10.72 10.72 25.856zM512 166.864q0-74.576-40.288-138-5.424-8.288-15.424-8.288h-400.576q-10 0-15.424 8.288-40.288 63.136-40.288 138 0 52 20.288 99.424t54.576 81.712 81.712 54.576 99.424 20.288 99.424-20.288 81.712-54.576 54.576-81.712 20.288-99.424z" />
<glyph unicode="&#xe66b;" d="M26.453 352.717c13.329-7.185 197.939-106.325 204.834-110.011 6.861-3.686 15.752-5.462 24.713-5.462 8.977 0 17.886 1.775 24.747 5.495 6.878 3.686 191.471 102.843 204.8 110.011 13.346 7.151 25.976 29.627 1.467 29.627h-461.995c-24.491 0-11.912-22.477 1.45-29.662zM491.195 298.103c-15.155-7.919-201.165-105.165-210.449-110.012s-15.752-5.495-24.746-5.495c-8.96 0-15.429 0.632-24.713 5.495s-195.328 102.127-210.449 110.012c-10.684 5.564-10.598-0.955-10.598-5.974 0-5.018 0-200.294 0-200.294 0-11.469 15.257-26.214 27.085-26.214h437.368c11.844 0 27.067 14.745 27.067 26.18 0 0 0 195.277 0 200.294 0 5.052 0.103 11.571-10.565 6.008z" />
<glyph unicode="&#xe66c;" d="M258.288-4.576q0 4.576-4.576 4.576-16.864 0-29.008 12.144t-12.144 29.008q0 4.576-4.576 4.576t-4.576-4.576q0-20.864 14.72-35.568t35.568-14.72q4.576 0 4.576 4.576zM491.424 77.712q0-14.864-10.864-25.712t-25.712-10.864h-128q0-30.288-21.424-51.712t-51.712-21.424-51.712 21.424-21.424 51.712h-128q-14.864 0-25.712 10.864t-10.864 25.712q54.288 46 82 113.568t27.712 142.432q0 47.136 27.424 74.864t75.424 33.424q-2.288 5.136-2.288 10.576 0 11.424 8 19.424t19.424 8 19.424-8 8-19.424q0-5.424-2.288-10.576 48-5.712 75.424-33.424t27.424-74.864q0-74.864 27.712-142.432t82-113.568z" />
<glyph unicode="&#xe66d;" d="M258.288-4.576q0 4.576-4.576 4.576-16.864 0-29.008 12.144t-12.144 29.008q0 4.576-4.576 4.576t-4.576-4.576q0-20.864 14.72-35.568t35.568-14.72q4.576 0 4.576 4.576zM68.288 77.712h370.864q-46.864 51.712-70.432 117.568t-23.568 138.432q0 73.136-91.424 73.136t-91.424-73.136q0-72.576-23.568-138.432t-70.432-117.568zM491.424 77.712q0-14.864-10.864-25.712t-25.712-10.864h-128q0-30.288-21.424-51.712t-51.712-21.424-51.712 21.424-21.424 51.712h-128q-14.864 0-25.712 10.864t-10.864 25.712q54.288 46 82 113.568t27.712 142.432q0 47.136 27.424 74.864t75.424 33.424q-2.288 5.136-2.288 10.576 0 11.424 8 19.424t19.424 8 19.424-8 8-19.424q0-5.424-2.288-10.576 48-5.712 75.424-33.424t27.424-74.864q0-74.864 27.712-142.432t82-113.568z" />
<glyph unicode="&#xe66e;" d="M497.374 188.493q0-7.919-5.786-13.721t-13.721-5.786h-68.267q0-52.121-20.411-88.389l63.385-63.693q5.786-5.786 5.786-13.721t-5.786-13.721q-5.478-5.786-13.721-5.786t-13.721 5.786l-60.348 60.041q-1.519-1.519-4.574-3.959t-12.8-8.687-19.815-11.127-24.986-8.841-29.56-3.959v273.067h-39.014v-273.067q-15.548 0-30.942 4.113t-26.522 10.053-20.121 11.878-13.261 9.899l-4.574 4.267-55.774-63.079q-6.093-6.4-14.626-6.4-7.322 0-13.107 4.881-5.785 5.478-6.246 13.568t4.727 14.166l61.56 69.189q-17.681 34.748-17.681 83.507h-68.266q-7.919 0-13.722 5.786t-5.786 13.721 5.785 13.721 13.722 5.786h68.266v89.6l-52.719 52.719q-5.785 5.785-5.785 13.721t5.785 13.721 13.721 5.786 13.722-5.786l52.719-52.719h257.212l52.719 52.719q5.786 5.786 13.721 5.786t13.721-5.786 5.786-13.721-5.786-13.721l-52.719-52.719v-89.6h68.267q7.919 0 13.721-5.786t5.786-13.721zM351.079 364.041h-195.055q0 40.533 28.501 69.034t69.035 28.502 69.034-28.502 28.502-69.034z" />
<glyph unicode="&#xe66f;" d="M309.312 175.344c0 0-26.624-34-60.64 0-32.992 32-56.992 0-56.992 0l-79.472-156.64c-2.304-8.528 2.768-17.296 11.296-19.584h263.952c8.528 2.288 13.6 11.040 11.312 19.584l-89.456 156.64zM431.024 26.72l-127.664 214.848v0.4l-0.224 125.904h8.816c13.216 0 23.968 10.736 23.968 23.984 0 13.232-10.752 23.968-23.968 23.968h-127.92c-13.232 0-23.968-10.736-23.968-23.968 0-13.248 10.736-23.984 23.968-23.984h7.712l-0.256-125.936-110.528-215.216c-6.848-25.584 8.336-51.872 33.904-58.72h282.256c25.6 6.848 40.784 33.136 33.904 58.72zM392.848-15.968l-273.728 0.304c-17.040 4.576-27.152 22.112-22.592 39.136l111.152 217.856 0.336 142.528h-23.968c-4.4 0-7.984 3.584-7.984 8 0 4.4 3.584 7.984 7.984 7.984h127.92c4.4 0 7.968-3.584 7.968-7.984 0-4.416-3.568-8-7.968-8h-23.968l0.4-142 127.024-218.656c4.576-17.072-5.552-34.608-22.576-39.168zM263.68 439.808c0-8.832 7.168-16 16-16s16 7.168 16 16-7.152 16-16 16-16-7.152-16-16zM279.68 479.808c13.248 0 24 10.736 24 24s-10.752 24-24 24-24-10.736-24-24 10.752-24 24-24zM215.68 439.808c8.848 0 16 7.168 16 16s-7.152 16-16 16-16-7.168-16-16 7.152-16 16-16z" />
<glyph unicode="&#xe670;" d="M399.36 362.8c0 54.784 0 60.128 0 60.128 0 20.224-64.176 57.056-143.36 57.056s-143.36-36.832-143.36-57.056c0 0 0-5.344 0-60.128 0-54.784 99.248-100.016 99.248-138.8 0-38.816-99.248-84.016-99.248-138.832 0-54.784 0-60.128 0-60.128 0-20.192 64.176-57.040 143.36-57.040s143.36 36.832 143.36 57.056c0 0 0 5.344 0 60.128 0 54.816-99.232 100.016-99.232 138.832 0 38.752 99.232 84.016 99.232 138.784zM152.064 420.384c17.824 11.232 51.232 27.728 105.312 27.728 54.112 0 102.56-27.728 102.56-27.728 3.632-2.208 17.872-9.824 8.112-15.584-21.472-12.72-63.456-26.112-112.080-26.112s-89.168 14.768-110.64 27.488c-9.76 5.792 6.736 14.208 6.736 14.208zM268.832 224c0-30.544 25.504-50.208 52.528-76.448 19.744-19.168 46.72-45.408 46.72-62.384v-34c-24.8 12.368-99.104 24.48-99.104 64.096 0 20.064-25.952 20.064-25.952 0 0-39.632-74.288-51.744-99.104-64.096v34c0 16.944 27.008 43.216 46.752 62.384 27.008 26.24 52.512 45.904 52.512 76.448 0 30.544-25.504 50.208-52.512 76.448-19.744 19.168-46.752 45.44-46.752 62.368l-1.2 25.6c26.272-14.128 67.92-27.616 113.28-27.616s87.216 13.488 113.488 27.616l-1.408-25.6c0-16.928-27.008-43.184-46.72-62.368-27.040-26.24-52.528-45.904-52.528-76.448z" />
<glyph unicode="&#xe671;" d="M459.488 101.216v58.784c0 35.504-23.504 88.32-88.288 88.32h-51.2c-36.144 0-39.504 17.712-39.68 26.88v71.584c21.84 9.44 37.12 31.152 37.12 56.416 0 33.92-27.488 61.44-61.44 61.44-33.952 0-61.44-27.52-61.44-61.44 0-25.264 15.28-46.976 37.12-56.416v-71.584c0-6.624-1.92-26.88-39.68-26.88h-51.2c-64.8 0-88.32-52.816-88.32-88.32v-58.784c-21.84-9.424-37.12-31.152-37.12-56.416 0-33.92 27.488-61.44 61.44-61.44 33.92 0 61.44 27.52 61.44 61.44 0 25.264-15.28 47.008-37.12 56.416v58.784c0 6.624 1.92 39.68 39.68 39.68h51.2c15.536 0 28.64 2.352 39.68 6.352v-104.8c-21.84-9.424-37.12-31.152-37.12-56.416 0-33.92 27.488-61.44 61.44-61.44 33.952 0 61.44 27.52 61.44 61.44 0 25.264-15.312 47.008-37.152 56.416v104.8c11.040-4 24.144-6.352 39.68-6.352h51.2c36.144 0 39.504-30.512 39.712-39.68v-58.784c-21.84-9.424-37.12-31.152-37.12-56.416 0-33.92 27.488-61.44 61.44-61.44s61.44 27.52 61.44 61.44c0 25.264-15.28 47.008-37.152 56.416zM112.256 44.8c0-19.584-15.872-35.456-35.456-35.456s-35.456 15.872-35.456 35.456 15.872 35.456 35.456 35.456 35.456-15.872 35.456-35.456zM220.544 403.2c0 19.584 15.904 35.456 35.456 35.456s35.424-15.872 35.424-35.456-15.872-35.456-35.424-35.456c-19.552 0-35.456 15.872-35.456 35.456zM291.456 44.8c0-19.584-15.904-35.456-35.424-35.456-19.584 0-35.456 15.872-35.456 35.456s15.872 35.456 35.424 35.456c19.552 0 35.456-15.872 35.456-35.456zM435.2 9.344c-19.552 0-35.456 15.872-35.456 35.456s15.904 35.456 35.456 35.456 35.456-15.872 35.456-35.456-15.904-35.456-35.456-35.456z" />
<glyph unicode="&#xe672;" d="M358.4 106.24c-25.264 0-47.008-15.312-56.416-37.12h-84.384c-36.144 0-39.52 30.512-39.68 39.68v99.024c11.040-5.088 24.144-8.144 39.68-8.144h84.384c9.424-21.84 31.152-37.12 56.416-37.12 33.92 0 61.44 27.52 61.44 61.44s-27.52 61.44-61.44 61.44c-25.264 0-47.008-15.312-56.416-37.12h-84.384c-36.144 0-39.52 30.512-39.68 39.68v58.784c21.84 9.424 37.088 31.152 37.088 56.416 0 33.92-27.488 61.44-61.408 61.44s-61.44-27.52-61.44-61.44c0-25.264 15.312-46.976 37.12-56.416v-237.984c0-35.504 23.52-88.32 88.32-88.32h84.384c9.424-21.84 31.152-37.12 56.416-37.12 33.92 0 61.44 27.488 61.44 61.44 0 33.92-27.52 61.44-61.44 61.44zM358.4 259.456c19.584 0 35.456-15.872 35.456-35.456s-15.872-35.456-35.456-35.456-35.456 15.872-35.456 35.456 15.872 35.456 35.456 35.456zM118.144 403.2c0 19.584 15.872 35.456 35.456 35.456s35.456-15.872 35.456-35.456-15.872-35.456-35.456-35.456-35.456 15.872-35.456 35.456zM358.4 9.344c-19.584 0-35.456 15.872-35.456 35.456s15.872 35.456 35.456 35.456 35.456-15.872 35.456-35.456-15.872-35.456-35.456-35.456z" />
<glyph unicode="&#xe673;" d="M209.397 398.762c0 38.63-31.311 69.905-69.905 69.905s-69.905-31.275-69.905-69.905c0-28.745 17.385-53.448 42.234-64.171v-221.166c-24.849-10.723-42.234-35.425-42.234-64.189 0-38.594 31.311-69.905 69.905-69.905 38.63 0 69.905 31.312 69.905 69.905 0 28.781-17.422 53.485-42.234 64.189v221.166c24.849 10.723 42.234 35.425 42.234 64.171zM179.833 49.238c0-22.282-18.059-40.341-40.341-40.341-22.246 0-40.304 18.058-40.304 40.341s18.058 40.341 40.304 40.341c22.282 0 40.341-18.058 40.341-40.341zM139.492 358.422c-22.246 0-40.304 18.058-40.304 40.341s18.058 40.341 40.304 40.341c22.282 0 40.341-18.058 40.341-40.341s-18.059-40.341-40.341-40.341zM400.216 113.426v221.166c24.813 10.722 42.198 35.425 42.198 64.171 0 38.63-31.275 69.905-69.905 69.905-38.557 0-69.905-31.275-69.905-69.905 0-28.745 17.422-53.448 42.271-64.171v-221.166c-24.867-10.723-42.271-35.425-42.271-64.189 0-38.594 31.349-69.905 69.905-69.905 38.63 0 69.905 31.312 69.905 69.905 0 28.781-17.385 53.485-42.198 64.189zM332.168 398.762c0 22.282 18.096 40.341 40.341 40.341 22.318 0 40.341-18.058 40.341-40.341s-18.022-40.341-40.341-40.341c-22.246 0-40.341 18.058-40.341 40.341zM372.509 8.897c-22.246 0-40.341 18.058-40.341 40.341s18.096 40.341 40.341 40.341c22.318 0 40.341-18.058 40.341-40.341s-18.022-40.341-40.341-40.341z" />
<glyph unicode="&#xe674;" d="M283.671 113.426v221.166c24.849 10.722 42.234 35.425 42.234 64.171 0 38.63-31.312 69.905-69.905 69.905s-69.905-31.275-69.905-69.905c0-28.745 17.422-53.448 42.234-64.171v-221.166c-24.849-10.723-42.234-35.425-42.234-64.189 0-38.594 31.311-69.905 69.905-69.905s69.905 31.312 69.905 69.905c0 28.781-17.385 53.485-42.234 64.189zM215.659 398.762c0 22.282 18.059 40.341 40.341 40.341s40.341-18.058 40.341-40.341-18.058-40.341-40.341-40.341-40.341 18.058-40.341 40.341zM256 8.897c-22.282 0-40.341 18.058-40.341 40.341s18.059 40.341 40.341 40.341 40.341-18.058 40.341-40.341-18.058-40.341-40.341-40.341z" />
<glyph unicode="&#xe675;" d="M442.413 398.762c0 38.594-31.275 69.905-69.905 69.905s-69.905-31.312-69.905-69.905c0-28.344 16.894-52.683 41.123-63.679-6.608-56.743-43.163-68.194-95.974-84.669-25.632-8.010-55.433-17.331-80.591-35.445v119.603c24.849 10.741 42.234 35.445 42.234 64.189 0 38.593-31.311 69.905-69.905 69.905-38.63 0-69.905-31.312-69.905-69.905 0-28.745 17.385-53.448 42.234-64.189v-221.166c-24.849-10.686-42.234-35.389-42.234-64.171 0-38.594 31.275-69.905 69.905-69.905 38.594 0 69.905 31.312 69.905 69.905 0 28.344-16.894 52.683-41.16 63.679 6.645 56.743 43.218 68.212 96.010 84.669 53.685 16.784 126.011 39.413 134.968 136.57 25.341 10.541 43.199 35.481 43.199 64.608zM99.15 398.762c0 22.282 18.058 40.341 40.341 40.341s40.341-18.058 40.341-40.341-18.059-40.341-40.341-40.341-40.341 18.058-40.341 40.341zM139.492 8.897c-22.282 0-40.341 18.058-40.341 40.341s18.058 40.341 40.341 40.341 40.341-18.058 40.341-40.341-18.059-40.341-40.341-40.341zM372.509 358.422c-22.246 0-40.341 18.058-40.341 40.341s18.096 40.341 40.341 40.341 40.341-18.058 40.341-40.341-18.096-40.341-40.341-40.341z" />
<glyph unicode="&#xe676;" d="M358.279 471.909h-288.692v-495.818h207.126v41.425h-165.701v412.968h207.126v-62.138h82.85v-227.839h41.425v249.836l-84.135 81.566zM400.988 99.082h-41.425v-41.425h-41.425v-41.425h41.425v-40.141h41.425v41.425h41.425v40.141h-41.425v41.425z" />
<glyph unicode="&#xe677;" d="M358.279 471.909h-288.692v-495.818h207.126v41.425h-165.701v412.968h207.126v-62.138h82.85v-227.839h41.425v249.836l-84.135 81.566zM318.138 36.944l124.276 1.284v40.141h-124.275v-41.425z" />
<glyph unicode="&#xe678;" d="M416-32h-320c-17.68 0-32 14.304-32 31.936v400.224c0 17.648 14.32 31.936 32 31.936h96v-31.936h-80c-8.832 0-16-7.136-16-15.968v-368.288c0-8.816 7.168-15.968 16-15.968h288c8.848 0 16 7.152 16 15.968v368.288c0 8.832-7.152 15.968-16 15.968h-80v31.936h96c17.664 0 32-14.304 32-31.936v-400.224c0-17.632-14.336-31.936-32-31.936zM400 384.192v-368.288h-288v368.288h16v-64.88h256v64.88h16zM176 271.408h-16v-15.968h16v15.968zM176 239.472h-16v-15.968h16v15.968zM176 207.536h-16v-15.968h16v15.968zM176 175.6h-16v-15.968h16v15.968zM176 143.664h-16v-15.968h16v15.968zM176 111.712h-16v-15.968h16v15.968zM176 79.776h-16v-15.968h16v15.968zM352 271.408h-160v-15.968h160v15.968zM352 239.472h-160v-15.968h160v15.968zM352 207.536h-160v-15.968h160v15.968zM352 175.6h-160v-15.968h160v15.968zM352 143.664h-160v-15.968h160v15.968zM352 111.712h-160v-15.968h160v15.968zM352 79.776h-160v-15.968h160v15.968zM352 384.192c8.848 0 16-7.136 16-15.968 0-8.816 0-31.936 0-31.936h-224c0 0 0 23.12 0 31.936 0 8.832 7.152 15.968 16 15.968h48c0 0 0.192 20.384 0.192 46.336 0 26.944 20.8 49.472 47.808 49.472s48.528-23.68 48.528-49.648c0-27.936-0.528-46.16-0.528-46.16h48zM256 432.096c-8.848 0-16-7.136-16-15.968 0-8.816 7.152-15.968 16-15.968s16 7.152 16 15.968c0 8.832-7.152 15.968-16 15.968z" />
<glyph unicode="&#xe679;" d="M400-32.656h-288c-17.68 0-32 14.288-32 31.936v385.552c0 17.632 14.32 31.92 32 31.92h80v-33.264h-64c-8.832 0-16-7.136-16-15.968v-352.272c0-8.848 7.168-15.968 16-15.968h256c8.848 0 16 7.12 16 15.968v352.272c0 8.832-7.152 15.968-16 15.968h-64v33.264h80c17.664 0 32-14.304 32-31.92v-385.552c0-17.648-14.336-31.936-32-31.936zM192 287.696h176v-15.968h-176v15.968zM192 239.792h176v-15.968h-176v15.968zM192 191.872h176v-15.968h-176v15.968zM192 143.968h176v-15.968h-176v15.968zM368 32.224h-176v15.936h176v-15.936zM192 96.064h176v-15.968h-176v15.968zM144 288.016h16v-15.968h-16v15.968zM144 240.112h16v-15.968h-16v15.968zM144 192.224h16v-15.968h-16v15.968zM144 144.32h16v-15.968h-16v15.968zM160 32.528h-16v15.968h16v-15.968zM144 96.4h16v-15.968h-16v15.968zM352 366.544c8.848 0 16-7.152 16-15.984 0-8.816 0-30.928 0-30.928h-224c0 0 0 22.112 0 30.928 0 8.832 7.152 15.984 16 15.984h48c0 0 0.192 22.704 0.192 48.656 0 26.944 20.8 49.472 47.808 49.472s48.528-23.68 48.528-49.632c0-27.952-0.528-48.496-0.528-48.496h48zM256 416.752c-8.848 0-16-7.136-16-15.952 0-8.832 7.152-15.968 16-15.968s16 7.136 16 15.968c0 8.816-7.152 15.952-16 15.952z" />
<glyph unicode="&#xe67a;" d="M126.448 367.632c0-8.8 0-31.888 0-31.888h224.224c0 0 0 23.088 0 31.888 0 8.816-7.12 15.952-15.936 15.952h-47.84c0 0 0.544 18.208 0.544 46.112 0 25.904-22.464 49.568-49.376 49.568s-47.648-22.496-47.648-49.424c0-25.904-0.192-46.256-0.192-46.256h-47.824c-8.816 0-15.952-7.136-15.952-15.952zM238.064 431.408c8.8 0 15.952-7.136 15.952-15.936 0-8.816-7.152-15.952-15.952-15.952s-15.952 7.136-15.952 15.952c0 8.8 7.152 15.936 15.952 15.936zM382.576 383.584v-158.416c0 0 13.76 15.184 31.872 22.464v151.888c0 17.616-15.28 31.888-32.88 31.888h-78.736v-31.888h63.776c8.816 0 15.968-7.136 15.968-15.936zM205.168-0.096h-94.672c-8.8 0-15.936 7.12-15.936 15.936v367.744c0 8.8 7.136 15.936 15.936 15.936h64.784v31.888h-80.72c-17.616 0-31.888-14.288-31.888-31.888v-399.616c0-17.616 14.272-31.904 31.888-31.904h145.296c-6.24 10.528-17.392 22.688-34.688 31.904zM382.576 15.84c0-8.816-7.152-15.936-15.952-15.936h-43.664c-8.032-10.752-15.6-21.44-22.56-31.904h81.184c17.6 0 32.88 14.288 32.88 31.904v98.064c-10.56-8.688-21.248-18.496-31.872-29.28v-52.848zM449.328 145.184c-17.968 39.936-7.68 72.368-5.12 109.808-105.264-52.4-172.016-209.648-172.016-209.648l-41.072 77.376-84.72-49.904c35.952-12.464 87.296-52.4 130.944-104.816 30.784 54.912 125.776 167.184 171.984 177.184z" />
<glyph unicode="&#xe67b;" d="M51.022 483.029h-21.806v-508.15h441.87v21.275l-419.687 1.083-0.376 485.791zM95.496 41.159h110.467v240.266l-110.467-110.467v-129.799zM228.056 41.159h110.467v218.173l-44.187-44.187-66.281 66.281v-240.266zM360.617 41.159h110.467v335.534l-110.467-110.467v-225.065zM214.27 348.987l79.979-79.536 157.924 157.129 40.519-40.74-0.973 97.19-97.543-0.508 37.935-38.046-137.907-138.305-81.503 81.812-124.231-123.811 20.745-20.149 105.055 104.966z" />
<glyph unicode="&#xe67c;" d="M56.871 483.029h-21.806v-508.15h441.87v21.275l-419.687 1.104-0.376 485.769zM211.813 288.341l-110.467 110.467v-357.649h110.467v247.182zM233.906 303.519v-262.36h110.467v284.454l-44.187 44.187-66.281-66.281zM366.467 240v-198.841h110.467v198.841h-110.467zM302.816 430.645l115.814-116.189-32.411-30.71 90.649-0.972-0.42 87.511-39.127-37.978-134.46 136.427-82.74-83.668-95.378 95.311-19.377-20.127 113.185-114.178 84.265 84.574z" />
<glyph unicode="&#xe67d;" d="M3.566 457.017v-485.452h485.452v485.452h-485.452zM236.582-9.017h-213.599v446.616h213.599v-446.616zM469.599-9.017h-213.599v446.616h213.599v-446.616z" />
<glyph unicode="&#xe67e;" d="M3.566 457.017v-485.452h485.452v485.452h-485.452zM158.91-9.017h-135.927v446.616h135.927v-446.616zM314.255-9.017h-135.927v446.616h135.927v-446.616zM469.599-9.017h-135.926v446.616h135.927v-446.616z" />
<glyph unicode="&#xe67f;" d="M17.664 189.904l34.896-8.656 26.272 41.264-49.92 12.368c-12.496 3.12-25.12-4.448-28.208-16.896-3.104-12.384 4.512-24.992 16.976-28.080zM473.12 183.248l-114.256-102.864-134.352 103.968c-2.56 2-5.504 3.408-8.656 4.192l-17.888 4.4-26.272-41.248 28.128-6.944 145.872-112.848c4.224-3.296 9.248-4.896 14.288-4.896 5.6 0 11.216 2 15.616 5.984l128.688 115.84c9.552 8.608 10.272 23.248 1.664 32.736-8.576 9.504-23.296 10.24-32.848 1.632zM222.304 296.16l125.104-80.096c10.544-6.736 24.576-3.936 31.712 6.32l128.72 185.392c7.296 10.544 4.656 24.96-5.92 32.256s-25.056 4.64-32.384-5.888l-115.92-166.96-125.872 80.592c-5.2 3.328-11.52 4.448-17.584 3.12s-11.312-4.992-14.624-10.208l-191.92-301.28c-6.912-10.8-3.68-25.088 7.168-31.952 3.872-2.464 8.192-3.616 12.464-3.616 7.712 0 15.232 3.792 19.664 10.752l179.376 281.568z" />
<glyph unicode="&#xe680;" d="M489.017-9.269v-19.166h-466.034v504.87h18.699l0.971-485.375 446.363-0.33zM469.599 243.418c10.738 0 19.418-8.699 19.418-19.418v-58.255c0-10.738-8.68-19.418-19.418-19.418h-388.361v97.091h388.361zM353.091 126.909c10.719 0 19.418-8.699 19.418-19.418v-58.255c0-10.738-8.699-19.418-19.418-19.418h-271.853v97.091h271.853zM236.582 359.927c10.738 0 19.418-8.699 19.418-19.418v-58.255c0-10.738-8.68-19.418-19.418-19.418h-155.345v97.090h155.345zM139.492 457.017v-58.255c0-10.738-8.68-19.418-19.418-19.418h-38.837v97.090h38.837c10.738 0 19.418-8.699 19.418-19.418z" />
</font>
</defs>
</svg>
